<?xml version="1.0" encoding="utf-8" standalone="no"?>
<!DOCTYPE svg PUBLIC "-//W3C//DTD SVG 1.1//EN"
  "http://www.w3.org/Graphics/SVG/1.1/DTD/svg11.dtd">
<svg xmlns:xlink="http://www.w3.org/1999/xlink" width="864pt" height="345.6pt" viewBox="0 0 864 345.6" xmlns="http://www.w3.org/2000/svg" version="1.1">
 <metadata>
  <rdf:RDF xmlns:dc="http://purl.org/dc/elements/1.1/" xmlns:cc="http://creativecommons.org/ns#" xmlns:rdf="http://www.w3.org/1999/02/22-rdf-syntax-ns#">
   <cc:Work>
    <dc:type rdf:resource="http://purl.org/dc/dcmitype/StillImage"/>
    <dc:format>image/svg+xml</dc:format>
    <dc:creator>
     <cc:Agent>
      <dc:title>Python-maths-CPGE — calcul différentiel</dc:title>
     </cc:Agent>
    </dc:creator>
   </cc:Work>
  </rdf:RDF>
 </metadata>
 <defs>
  <style type="text/css">*{stroke-linejoin: round; stroke-linecap: butt}</style>
 </defs>
 <g id="figure_1">
  <g id="patch_1">
   <path d="M 0 345.6
L 864 345.6
L 864 0
L 0 0
z
" style="fill: #ffffff"/>
  </g>
  <g id="axes_1">
   <g id="patch_2">
    <path d="M 39.903365 311.598979
L 419.283445 311.598979
L 419.283445 40.120095
L 39.903365 40.120095
z
" style="fill: #ffffff"/>
   </g>
   <g id="matplotlib.axis_1">
    <g id="xtick_1">
     <g id="line2d_1">
      <path d="M 57.147914 311.598979
L 57.147914 40.120095
" clip-path="url(#p6ff42db5ac)" style="fill: none; stroke: #b0b0b0; stroke-opacity: 0.18; stroke-width: 0.8; stroke-linecap: square"/>
     </g>
     <g id="line2d_2">
      <defs>
       <path id="m4df893dc3d" d="M 0 0
L 0 3.5
" style="stroke: #000000; stroke-width: 0.8"/>
      </defs>
      <g>
       <use xlink:href="#m4df893dc3d" x="57.147914" y="311.598979" style="stroke: #000000; stroke-width: 0.8"/>
      </g>
     </g>
     <g id="text_1">
      <text style="font-size: 10px; font-family: 'DejaVu Sans'; text-anchor: middle" x="57.147914" y="326.196635" transform="rotate(-0 57.147914 326.196635)">0.0</text>
     </g>
    </g>
    <g id="xtick_2">
     <g id="line2d_3">
      <path d="M 114.629744 311.598979
L 114.629744 40.120095
" clip-path="url(#p6ff42db5ac)" style="fill: none; stroke: #b0b0b0; stroke-opacity: 0.18; stroke-width: 0.8; stroke-linecap: square"/>
     </g>
     <g id="line2d_4">
      <g>
       <use xlink:href="#m4df893dc3d" x="114.629744" y="311.598979" style="stroke: #000000; stroke-width: 0.8"/>
      </g>
     </g>
     <g id="text_2">
      <text style="font-size: 10px; font-family: 'DejaVu Sans'; text-anchor: middle" x="114.629744" y="326.196635" transform="rotate(-0 114.629744 326.196635)">0.5</text>
     </g>
    </g>
    <g id="xtick_3">
     <g id="line2d_5">
      <path d="M 172.111575 311.598979
L 172.111575 40.120095
" clip-path="url(#p6ff42db5ac)" style="fill: none; stroke: #b0b0b0; stroke-opacity: 0.18; stroke-width: 0.8; stroke-linecap: square"/>
     </g>
     <g id="line2d_6">
      <g>
       <use xlink:href="#m4df893dc3d" x="172.111575" y="311.598979" style="stroke: #000000; stroke-width: 0.8"/>
      </g>
     </g>
     <g id="text_3">
      <text style="font-size: 10px; font-family: 'DejaVu Sans'; text-anchor: middle" x="172.111575" y="326.196635" transform="rotate(-0 172.111575 326.196635)">1.0</text>
     </g>
    </g>
    <g id="xtick_4">
     <g id="line2d_7">
      <path d="M 229.593405 311.598979
L 229.593405 40.120095
" clip-path="url(#p6ff42db5ac)" style="fill: none; stroke: #b0b0b0; stroke-opacity: 0.18; stroke-width: 0.8; stroke-linecap: square"/>
     </g>
     <g id="line2d_8">
      <g>
       <use xlink:href="#m4df893dc3d" x="229.593405" y="311.598979" style="stroke: #000000; stroke-width: 0.8"/>
      </g>
     </g>
     <g id="text_4">
      <text style="font-size: 10px; font-family: 'DejaVu Sans'; text-anchor: middle" x="229.593405" y="326.196635" transform="rotate(-0 229.593405 326.196635)">1.5</text>
     </g>
    </g>
    <g id="xtick_5">
     <g id="line2d_9">
      <path d="M 287.075236 311.598979
L 287.075236 40.120095
" clip-path="url(#p6ff42db5ac)" style="fill: none; stroke: #b0b0b0; stroke-opacity: 0.18; stroke-width: 0.8; stroke-linecap: square"/>
     </g>
     <g id="line2d_10">
      <g>
       <use xlink:href="#m4df893dc3d" x="287.075236" y="311.598979" style="stroke: #000000; stroke-width: 0.8"/>
      </g>
     </g>
     <g id="text_5">
      <text style="font-size: 10px; font-family: 'DejaVu Sans'; text-anchor: middle" x="287.075236" y="326.196635" transform="rotate(-0 287.075236 326.196635)">2.0</text>
     </g>
    </g>
    <g id="xtick_6">
     <g id="line2d_11">
      <path d="M 344.557066 311.598979
L 344.557066 40.120095
" clip-path="url(#p6ff42db5ac)" style="fill: none; stroke: #b0b0b0; stroke-opacity: 0.18; stroke-width: 0.8; stroke-linecap: square"/>
     </g>
     <g id="line2d_12">
      <g>
       <use xlink:href="#m4df893dc3d" x="344.557066" y="311.598979" style="stroke: #000000; stroke-width: 0.8"/>
      </g>
     </g>
     <g id="text_6">
      <text style="font-size: 10px; font-family: 'DejaVu Sans'; text-anchor: middle" x="344.557066" y="326.196635" transform="rotate(-0 344.557066 326.196635)">2.5</text>
     </g>
    </g>
    <g id="xtick_7">
     <g id="line2d_13">
      <path d="M 402.038896 311.598979
L 402.038896 40.120095
" clip-path="url(#p6ff42db5ac)" style="fill: none; stroke: #b0b0b0; stroke-opacity: 0.18; stroke-width: 0.8; stroke-linecap: square"/>
     </g>
     <g id="line2d_14">
      <g>
       <use xlink:href="#m4df893dc3d" x="402.038896" y="311.598979" style="stroke: #000000; stroke-width: 0.8"/>
      </g>
     </g>
     <g id="text_7">
      <text style="font-size: 10px; font-family: 'DejaVu Sans'; text-anchor: middle" x="402.038896" y="326.196635" transform="rotate(-0 402.038896 326.196635)">3.0</text>
     </g>
    </g>
    <g id="text_8">
     <text style="font-size: 10px; font-family: 'DejaVu Sans'; text-anchor: middle; fill: #17363d" x="229.593405" y="340.196635" transform="rotate(-0 229.593405 340.196635)">x</text>
    </g>
   </g>
   <g id="matplotlib.axis_2">
    <g id="ytick_1">
     <g id="line2d_15">
      <path d="M 39.903365 290.776327
L 419.283445 290.776327
" clip-path="url(#p6ff42db5ac)" style="fill: none; stroke: #b0b0b0; stroke-opacity: 0.18; stroke-width: 0.8; stroke-linecap: square"/>
     </g>
     <g id="line2d_16">
      <defs>
       <path id="m03fcabb218" d="M 0 0
L -3.5 0
" style="stroke: #000000; stroke-width: 0.8"/>
      </defs>
      <g>
       <use xlink:href="#m03fcabb218" x="39.903365" y="290.776327" style="stroke: #000000; stroke-width: 0.8"/>
      </g>
     </g>
     <g id="text_9">
      <text style="font-size: 10px; font-family: 'DejaVu Sans'; text-anchor: end" x="32.903365" y="294.575155" transform="rotate(-0 32.903365 294.575155)">0.0</text>
     </g>
    </g>
    <g id="ytick_2">
     <g id="line2d_17">
      <path d="M 39.903365 233.317932
L 419.283445 233.317932
" clip-path="url(#p6ff42db5ac)" style="fill: none; stroke: #b0b0b0; stroke-opacity: 0.18; stroke-width: 0.8; stroke-linecap: square"/>
     </g>
     <g id="line2d_18">
      <g>
       <use xlink:href="#m03fcabb218" x="39.903365" y="233.317932" style="stroke: #000000; stroke-width: 0.8"/>
      </g>
     </g>
     <g id="text_10">
      <text style="font-size: 10px; font-family: 'DejaVu Sans'; text-anchor: end" x="32.903365" y="237.11676" transform="rotate(-0 32.903365 237.11676)">0.5</text>
     </g>
    </g>
    <g id="ytick_3">
     <g id="line2d_19">
      <path d="M 39.903365 175.859537
L 419.283445 175.859537
" clip-path="url(#p6ff42db5ac)" style="fill: none; stroke: #b0b0b0; stroke-opacity: 0.18; stroke-width: 0.8; stroke-linecap: square"/>
     </g>
     <g id="line2d_20">
      <g>
       <use xlink:href="#m03fcabb218" x="39.903365" y="175.859537" style="stroke: #000000; stroke-width: 0.8"/>
      </g>
     </g>
     <g id="text_11">
      <text style="font-size: 10px; font-family: 'DejaVu Sans'; text-anchor: end" x="32.903365" y="179.658365" transform="rotate(-0 32.903365 179.658365)">1.0</text>
     </g>
    </g>
    <g id="ytick_4">
     <g id="line2d_21">
      <path d="M 39.903365 118.401142
L 419.283445 118.401142
" clip-path="url(#p6ff42db5ac)" style="fill: none; stroke: #b0b0b0; stroke-opacity: 0.18; stroke-width: 0.8; stroke-linecap: square"/>
     </g>
     <g id="line2d_22">
      <g>
       <use xlink:href="#m03fcabb218" x="39.903365" y="118.401142" style="stroke: #000000; stroke-width: 0.8"/>
      </g>
     </g>
     <g id="text_12">
      <text style="font-size: 10px; font-family: 'DejaVu Sans'; text-anchor: end" x="32.903365" y="122.19997" transform="rotate(-0 32.903365 122.19997)">1.5</text>
     </g>
    </g>
    <g id="ytick_5">
     <g id="line2d_23">
      <path d="M 39.903365 60.942747
L 419.283445 60.942747
" clip-path="url(#p6ff42db5ac)" style="fill: none; stroke: #b0b0b0; stroke-opacity: 0.18; stroke-width: 0.8; stroke-linecap: square"/>
     </g>
     <g id="line2d_24">
      <g>
       <use xlink:href="#m03fcabb218" x="39.903365" y="60.942747" style="stroke: #000000; stroke-width: 0.8"/>
      </g>
     </g>
     <g id="text_13">
      <text style="font-size: 10px; font-family: 'DejaVu Sans'; text-anchor: end" x="32.903365" y="64.741575" transform="rotate(-0 32.903365 64.741575)">2.0</text>
     </g>
    </g>
    <g id="text_14">
     <text style="font-size: 10px; font-family: 'DejaVu Sans'; text-anchor: middle; fill: #17363d" x="10.597896" y="175.859537" transform="rotate(-90 10.597896 175.859537)">y</text>
    </g>
   </g>
   <g id="line2d_25">
    <path d="M 91.637012 290.776327
L 91.634008 290.472956
L 91.624994 290.169638
L 91.609974 289.866426
L 91.588949 289.563372
L 91.561923 289.26053
L 91.528901 288.957952
L 91.489888 288.65569
L 91.444892 288.353798
L 91.39392 288.052328
L 91.336981 287.751333
L 91.274085 287.450865
L 91.205243 287.150976
L 91.130467 286.851719
L 91.04977 286.553146
L 90.963166 286.255309
L 90.87067 285.958259
L 90.772299 285.662049
L 90.668069 285.36673
L 90.557998 285.072353
L 90.442106 284.77897
L 90.320413 284.486633
L 90.19294 284.195391
L 90.05971 283.905295
L 89.920745 283.616397
L 89.77607 283.328747
L 89.62571 283.042394
L 89.469691 282.757389
L 89.30804 282.47378
L 89.140786 282.191619
L 88.967958 281.910953
L 88.789585 281.631832
L 88.6057 281.354304
L 88.416333 281.078418
L 88.221518 280.804222
L 88.021289 280.531763
L 87.81568 280.261089
L 87.604729 279.992247
L 87.38847 279.725284
L 87.166943 279.460247
L 86.940185 279.197181
L 86.708236 278.936133
L 86.471136 278.677148
L 86.228928 278.420271
L 85.981652 278.165547
L 85.729353 277.91302
L 85.472074 277.662735
L 85.209859 277.414734
L 84.942755 277.169061
L 84.670809 276.925759
L 84.394066 276.684871
L 84.112577 276.446438
L 83.826389 276.210501
L 83.535553 275.977103
L 83.240119 275.746283
L 82.940139 275.518081
L 82.635665 275.292539
L 82.32675 275.069694
L 82.013448 274.849586
L 81.695814 274.632253
L 81.373902 274.417733
L 81.04777 274.206063
L 80.717473 273.99728
L 80.383069 273.79142
L 80.044617 273.588521
L 79.702176 273.388615
L 79.355805 273.19174
L 79.005564 272.997928
L 78.651515 272.807214
L 78.293719 272.619631
L 77.932239 272.435211
L 77.567138 272.253987
L 77.198478 272.075991
L 76.826326 271.901252
L 76.450744 271.729803
L 76.071799 271.561672
L 75.689557 271.396889
L 75.304085 271.235482
L 74.915449 271.07748
L 74.523717 270.922911
L 74.128957 270.771801
L 73.731239 270.624176
L 73.330632 270.480062
L 72.927205 270.339485
L 72.521028 270.202469
L 72.112173 270.069037
L 71.700711 269.939213
L 71.286713 269.81302
L 70.870251 269.69048
L 70.451399 269.571613
L 70.030228 269.456441
L 69.606813 269.344984
L 69.181228 269.237261
L 68.753545 269.133291
L 68.323841 269.033091
L 67.892189 268.936681
L 67.458665 268.844075
L 67.023345 268.755291
L 66.586304 268.670344
L 66.147618 268.589248
L 65.707365 268.512019
L 65.26562 268.438668
L 64.82246 268.36921
L 64.377964 268.303655
L 63.932208 268.242017
L 63.485269 268.184304
L 63.037227 268.130528
L 62.588158 268.080698
L 62.138141 268.034822
L 61.687255 267.992908
L 61.235578 267.954965
L 60.783189 267.920997
L 60.330167 267.891012
L 59.87659 267.865014
L 59.422537 267.843008
L 58.968088 267.824998
L 58.513322 267.810987
L 58.058318 267.800978
L 57.603156 267.794971
L 57.147914 267.792969
" clip-path="url(#p6ff42db5ac)" style="fill: none; stroke: #8dc9ac; stroke-linecap: square"/>
   </g>
   <g id="line2d_26">
    <path d="M 126.126111 290.776327
L 126.120101 290.169585
L 126.102075 289.562949
L 126.072033 288.956525
L 126.029983 288.350418
L 125.975931 287.744733
L 125.909887 287.139576
L 125.831862 286.535054
L 125.741869 285.93127
L 125.639925 285.32833
L 125.526047 284.72634
L 125.400256 284.125403
L 125.262572 283.525626
L 125.11302 282.927112
L 124.951626 282.329965
L 124.778418 281.73429
L 124.593426 281.140191
L 124.396683 280.54777
L 124.188223 279.957132
L 123.968082 279.368379
L 123.736298 278.781614
L 123.492912 278.196938
L 123.237967 277.614454
L 122.971506 277.034264
L 122.693576 276.456468
L 122.404226 275.881167
L 122.103506 275.308461
L 121.791468 274.73845
L 121.468167 274.171234
L 121.133659 273.606911
L 120.788002 273.045579
L 120.431257 272.487337
L 120.063485 271.932281
L 119.684752 271.380509
L 119.295122 270.832116
L 118.894663 270.287199
L 118.483447 269.745851
L 118.061543 269.208167
L 117.629026 268.674242
L 117.185971 268.144167
L 116.732455 267.618036
L 116.268557 267.095939
L 115.794359 266.577969
L 115.309942 266.064215
L 114.815391 265.554767
L 114.310792 265.049713
L 113.796233 264.549142
L 113.271804 264.053141
L 112.737597 263.561795
L 112.193703 263.075192
L 111.640219 262.593415
L 111.07724 262.116548
L 110.504864 261.644675
L 109.923192 261.177878
L 109.332324 260.716238
L 108.732364 260.259836
L 108.123416 259.808751
L 107.505587 259.363061
L 106.878983 258.922845
L 106.243714 258.488179
L 105.599891 258.059138
L 104.947625 257.635798
L 104.287032 257.218233
L 103.618225 256.806514
L 102.941321 256.400714
L 102.256438 256.000904
L 101.563695 255.607153
L 100.863214 255.219529
L 100.155116 254.838101
L 99.439525 254.462935
L 98.716564 254.094096
L 97.986361 253.731648
L 97.249043 253.375655
L 96.504737 253.026178
L 95.753574 252.683279
L 94.995685 252.347017
L 94.231201 252.01745
L 93.460255 251.694637
L 92.682983 251.378634
L 91.899519 251.069495
L 91.11 250.767274
L 90.314564 250.472024
L 89.513349 250.183797
L 88.706495 249.902643
L 87.894142 249.62861
L 87.076432 249.361747
L 86.253507 249.1021
L 85.425511 248.849713
L 84.592588 248.604632
L 83.754883 248.366899
L 82.912543 248.136555
L 82.065713 247.913641
L 81.214541 247.698195
L 80.359176 247.490254
L 79.499767 247.289856
L 78.636464 247.097034
L 77.769416 246.911823
L 76.898776 246.734255
L 76.024694 246.564361
L 75.147323 246.40217
L 74.266815 246.24771
L 73.383326 246.101009
L 72.497007 245.962092
L 71.608014 245.830984
L 70.716501 245.707706
L 69.822624 245.592282
L 68.926539 245.48473
L 68.028402 245.385069
L 67.128369 245.293317
L 66.226597 245.20949
L 65.323243 245.133602
L 64.418464 245.065667
L 63.512419 245.005697
L 62.605265 244.953701
L 61.69716 244.90969
L 60.788262 244.87367
L 59.87873 244.845648
L 58.968723 244.825628
L 58.058398 244.813615
L 57.147914 244.809611
" clip-path="url(#p6ff42db5ac)" style="fill: none; stroke: #8dc9ac; stroke-linecap: square"/>
   </g>
   <g id="line2d_27">
    <path d="M 160.615209 290.776327
L 160.606195 289.866215
L 160.579155 288.956261
L 160.534093 288.046624
L 160.471018 287.137463
L 160.38994 286.228936
L 160.290873 285.321201
L 160.173836 284.414417
L 160.038847 283.508741
L 159.885931 282.604331
L 159.715114 281.701346
L 159.526426 280.799941
L 159.3199 279.900275
L 159.095572 279.002504
L 158.853481 278.106784
L 158.59367 277.213272
L 158.316182 276.322123
L 158.021068 275.433492
L 157.708377 274.547535
L 157.378166 273.664405
L 157.03049 272.784257
L 156.665411 271.907244
L 156.282993 271.033518
L 155.883302 270.163232
L 155.466407 269.296538
L 155.032382 268.433587
L 154.581302 267.574528
L 154.113245 266.719512
L 153.628293 265.868687
L 153.126531 265.022203
L 152.608046 264.180205
L 152.072928 263.342842
L 151.521271 262.510259
L 150.95317 261.6826
L 150.368725 260.860011
L 149.768038 260.042634
L 149.151213 259.230613
L 148.518358 258.424087
L 147.869582 257.623199
L 147.204999 256.828087
L 146.524726 256.03889
L 145.828879 255.255746
L 145.117581 254.47879
L 144.390955 253.708159
L 143.649129 252.943987
L 142.892231 252.186406
L 142.120393 251.43555
L 141.333749 250.691547
L 140.532438 249.954529
L 139.716598 249.224624
L 138.886371 248.501959
L 138.041902 247.786659
L 137.183339 247.07885
L 136.310831 246.378654
L 135.42453 245.686194
L 134.524589 245.00159
L 133.611168 244.324962
L 132.684423 243.656428
L 131.744517 242.996104
L 130.791614 242.344104
L 129.825879 241.700544
L 128.847481 241.065534
L 127.85659 240.439185
L 126.85338 239.821607
L 125.838024 239.212908
L 124.8107 238.613192
L 123.771586 238.022566
L 122.720864 237.44113
L 121.658717 236.868988
L 120.58533 236.306239
L 119.50089 235.75298
L 118.405585 235.209308
L 117.299607 234.675318
L 116.183149 234.151103
L 115.056404 233.636754
L 113.91957 233.132361
L 112.772844 232.638012
L 111.616426 232.153793
L 110.450517 231.679787
L 109.275322 231.216079
L 108.091044 230.762748
L 106.897889 230.319873
L 105.696067 229.887532
L 104.485785 229.465801
L 103.267256 229.054752
L 102.040691 228.654457
L 100.806304 228.264986
L 99.56431 227.886407
L 98.314925 227.518785
L 97.058368 227.162185
L 95.794857 226.816669
L 94.524612 226.482298
L 93.247855 226.159128
L 91.964808 225.847218
L 90.675694 225.54662
L 89.380739 225.257388
L 88.080167 224.979571
L 86.774206 224.713219
L 85.463083 224.458378
L 84.147027 224.215091
L 82.826266 223.983402
L 81.501031 223.763351
L 80.171553 223.554975
L 78.838064 223.358312
L 77.500795 223.173396
L 76.15998 223.000259
L 74.815852 222.838931
L 73.468646 222.68944
L 72.118596 222.551812
L 70.765938 222.426071
L 69.410907 222.31224
L 68.053739 222.210338
L 66.694672 222.120382
L 65.33394 222.042388
L 63.971783 221.976371
L 62.608437 221.922341
L 61.244139 221.880308
L 59.879127 221.850279
L 58.51364 221.83226
L 57.147914 221.826253
" clip-path="url(#p6ff42db5ac)" style="fill: none; stroke: #8dc9ac; stroke-linecap: square"/>
   </g>
   <g id="line2d_28">
    <path d="M 195.104307 290.776327
L 195.092288 289.562844
L 195.056235 288.349572
L 194.996153 287.136723
L 194.912052 285.924508
L 194.803948 284.713139
L 194.67186 283.502826
L 194.515809 282.29378
L 194.335824 281.086212
L 194.131936 279.880333
L 193.904181 278.676352
L 193.652597 277.474479
L 193.377229 276.274924
L 193.078125 275.077896
L 192.755337 273.883603
L 192.408922 272.692253
L 192.038938 271.504055
L 191.645452 270.319214
L 191.228532 269.137937
L 190.788249 267.960431
L 190.324682 266.7869
L 189.83791 265.617549
L 189.328019 264.452582
L 188.795098 263.292201
L 188.239238 262.136608
L 187.660538 260.986006
L 187.059097 259.840595
L 186.435022 258.700573
L 185.788419 257.566141
L 185.119403 256.437495
L 184.42809 255.314831
L 183.714599 254.198347
L 182.979056 253.088236
L 182.221589 251.984691
L 181.442329 250.887906
L 180.641413 249.79807
L 179.818979 248.715374
L 178.975172 247.640007
L 178.110138 246.572156
L 177.224028 245.512007
L 176.316996 244.459744
L 175.389201 243.415552
L 174.440803 242.379611
L 173.471969 241.352103
L 172.482867 240.333207
L 171.47367 239.3231
L 170.444552 238.321957
L 169.395695 237.329954
L 168.327279 236.347264
L 167.239492 235.374057
L 166.132523 234.410503
L 165.006565 233.45677
L 163.861814 232.513024
L 162.69847 231.57943
L 161.516735 230.65615
L 160.316815 229.743345
L 159.098919 228.841174
L 157.863259 227.949795
L 156.610051 227.069362
L 155.339514 226.20003
L 154.051867 225.341949
L 152.747337 224.495269
L 151.426149 223.660138
L 150.088535 222.836701
L 148.734727 222.025101
L 147.364962 221.225481
L 145.979477 220.437978
L 144.578514 219.662732
L 143.162318 218.899875
L 141.731135 218.149543
L 140.285215 217.411864
L 138.824809 216.686969
L 137.350172 215.974982
L 135.86156 215.276029
L 134.359234 214.59023
L 132.843455 213.917706
L 131.314487 213.258574
L 129.772596 212.612948
L 128.218052 211.980941
L 126.651124 211.362662
L 125.072087 210.758221
L 123.481214 210.167722
L 121.878784 209.591268
L 120.265076 209.028959
L 118.64037 208.480893
L 117.00495 207.947167
L 115.3591 207.427872
L 113.703108 206.9231
L 112.037262 206.432938
L 110.361853 205.957471
L 108.677171 205.496784
L 106.983511 205.050955
L 105.281168 204.620062
L 103.570439 204.204181
L 101.851621 203.803384
L 100.125014 203.417741
L 98.390918 203.04732
L 96.649637 202.692183
L 94.901473 202.352395
L 93.146731 202.028012
L 91.385717 201.719094
L 89.618737 201.425692
L 87.8461 201.147858
L 86.068113 200.885641
L 84.285088 200.639086
L 82.497335 200.408236
L 80.705165 200.193132
L 78.90889 199.993811
L 77.108823 199.810307
L 75.305279 199.642653
L 73.498571 199.490878
L 71.689015 199.355008
L 69.876924 199.235067
L 68.062616 199.131076
L 66.246406 199.043052
L 64.428611 198.971012
L 62.609547 198.914968
L 60.789531 198.87493
L 58.968881 198.850904
L 57.147914 198.842895
" clip-path="url(#p6ff42db5ac)" style="fill: none; stroke: #8dc9ac; stroke-linecap: square"/>
   </g>
   <g id="line2d_29">
    <path d="M 229.593405 290.776327
L 229.578382 289.259473
L 229.533315 287.742883
L 229.458212 286.226822
L 229.353087 284.711553
L 229.217957 283.197342
L 229.052846 281.68445
L 228.857783 280.173143
L 228.632802 278.663684
L 228.377942 277.156334
L 228.093247 275.651358
L 227.778768 274.149018
L 227.434558 272.649574
L 227.060678 271.153289
L 226.657193 269.660422
L 226.224173 268.171235
L 225.761694 266.685987
L 225.269837 265.204936
L 224.748686 263.72834
L 224.198333 262.256457
L 223.618874 260.789543
L 223.01041 259.327855
L 222.373046 257.871645
L 221.706894 256.421169
L 221.012069 254.976679
L 220.288694 253.538426
L 219.536893 252.106662
L 218.756799 250.681635
L 217.948546 249.263594
L 217.112275 247.852787
L 216.248134 246.449458
L 215.356271 245.053852
L 214.436842 243.666213
L 213.490008 242.286782
L 212.515933 240.9158
L 211.514788 239.553506
L 210.486746 238.200136
L 209.431987 236.855927
L 208.350694 235.521113
L 207.243056 234.195927
L 206.109267 232.880599
L 204.949522 231.575358
L 203.764026 230.280433
L 202.552983 228.996048
L 201.316606 227.722427
L 200.055109 226.459793
L 198.768712 225.208365
L 197.45764 223.968361
L 196.12212 222.739998
L 194.762387 221.523489
L 193.378676 220.319047
L 191.971228 219.12688
L 190.540289 217.947198
L 189.086109 216.780205
L 187.60894 215.626105
L 186.10904 214.485099
L 184.58667 213.357386
L 183.042095 212.243162
L 181.475586 211.142621
L 179.887413 210.055956
L 178.277856 208.983355
L 176.647192 207.925005
L 174.995708 206.881091
L 173.32369 205.851794
L 171.63143 204.837295
L 169.919223 203.837769
L 168.187367 202.853391
L 166.436164 201.884333
L 164.665919 200.930763
L 162.876941 199.992847
L 161.06954 199.070749
L 159.244032 198.164629
L 157.400736 197.274646
L 155.539972 196.400954
L 153.662064 195.543706
L 151.76734 194.703051
L 149.85613 193.879135
L 147.928767 193.072103
L 145.985586 192.282094
L 144.026927 191.509246
L 142.05313 190.753695
L 140.06454 190.015571
L 138.061502 189.295003
L 136.044366 188.592117
L 134.013484 187.907035
L 131.969209 187.239877
L 129.911897 186.590758
L 127.841907 185.959793
L 125.759599 185.34709
L 123.665337 184.752757
L 121.559485 184.176898
L 119.442411 183.619612
L 117.314482 183.080996
L 115.17607 182.561145
L 113.027547 182.060149
L 110.869289 181.578095
L 108.701669 181.115068
L 106.525068 180.671147
L 104.339863 180.246411
L 102.146435 179.840934
L 99.945167 179.454785
L 97.736443 179.088033
L 95.520646 178.740741
L 93.298163 178.412969
L 91.069382 178.104776
L 88.83469 177.816214
L 86.594477 177.547333
L 84.349134 177.298182
L 82.099051 177.068802
L 79.844621 176.859234
L 77.586236 176.669515
L 75.32429 176.499678
L 73.059177 176.349752
L 70.791291 176.219763
L 68.521029 176.109734
L 66.248785 176.019684
L 63.974955 175.949629
L 61.699936 175.899581
L 59.424123 175.869548
L 57.147914 175.859537
" clip-path="url(#p6ff42db5ac)" style="fill: none; stroke: #8dc9ac; stroke-linecap: square"/>
   </g>
   <g id="line2d_30">
    <path d="M 264.082503 290.776327
L 264.064476 288.956102
L 264.010395 287.136194
L 263.920272 285.316921
L 263.794122 283.498599
L 263.631966 281.681545
L 263.433833 279.866075
L 263.199757 278.052507
L 262.92978 276.241155
L 262.623947 274.432336
L 262.282314 272.626365
L 261.904938 270.823556
L 261.491887 269.024223
L 261.043231 267.228681
L 260.559049 265.437241
L 260.039425 263.650217
L 259.48445 261.867919
L 258.894221 260.090657
L 258.26884 258.318743
L 257.608417 256.552483
L 256.913066 254.792187
L 256.182909 253.03816
L 255.418072 251.290709
L 254.618689 249.550137
L 253.7849 247.816749
L 252.91685 246.090846
L 252.014689 244.372729
L 251.078575 242.662697
L 250.108672 240.961048
L 249.105148 239.268078
L 248.068177 237.584084
L 246.997942 235.909357
L 245.894627 234.24419
L 244.758426 232.588874
L 243.589537 230.943695
L 242.388162 229.308942
L 241.154512 227.684898
L 239.888801 226.071847
L 238.59125 224.470071
L 237.262085 222.879847
L 235.901537 221.301453
L 234.509844 219.735164
L 233.087248 218.181254
L 231.633997 216.639992
L 230.150344 215.111647
L 228.636547 213.596486
L 227.092871 212.094772
L 225.519585 210.606768
L 223.916962 209.132732
L 222.285281 207.672921
L 220.624828 206.22759
L 218.935891 204.796991
L 217.218764 203.381372
L 215.473748 201.980981
L 213.701145 200.596061
L 211.901265 199.226854
L 210.074421 197.873598
L 208.220932 196.536529
L 206.34112 195.21588
L 204.435313 193.911882
L 202.503844 192.62476
L 200.547048 191.35474
L 198.565267 190.102044
L 196.558845 188.866888
L 194.528134 187.649488
L 192.473485 186.450058
L 190.395258 185.268804
L 188.293814 184.105934
L 186.16952 182.96165
L 184.022746 181.836151
L 181.853865 180.729633
L 179.663256 179.64229
L 177.4513 178.57431
L 175.218383 177.52588
L 172.964894 176.497182
L 170.691226 175.488396
L 168.397773 174.499697
L 166.084938 173.531258
L 163.753121 172.583247
L 161.40273 171.65583
L 159.034173 170.749168
L 156.647865 169.863419
L 154.244219 168.998738
L 151.823657 168.155275
L 149.386598 167.333177
L 146.933467 166.532587
L 144.464693 165.753645
L 141.980705 164.996486
L 139.481936 164.261243
L 136.968822 163.548044
L 134.4418 162.857012
L 131.90131 162.188268
L 129.347795 161.54193
L 126.781701 160.918108
L 124.203474 160.316913
L 121.613563 159.738449
L 119.012421 159.182816
L 116.400499 158.650112
L 113.778253 158.140428
L 111.14614 157.653855
L 108.504618 157.190477
L 105.854148 156.750374
L 103.195192 156.333623
L 100.528213 155.940298
L 97.853675 155.570465
L 95.172045 155.224191
L 92.48379 154.901535
L 89.789378 154.602553
L 87.089278 154.327297
L 84.383962 154.075816
L 81.6739 153.848153
L 78.959565 153.644348
L 76.241429 153.464437
L 73.519967 153.30845
L 70.795652 153.176415
L 68.068959 153.068355
L 65.340363 152.984289
L 62.61034 152.924231
L 59.879365 152.888192
L 57.147914 152.876179
" clip-path="url(#p6ff42db5ac)" style="fill: none; stroke: #8dc9ac; stroke-linecap: square"/>
   </g>
   <g id="line2d_31">
    <path d="M 298.571602 290.776327
L 298.550569 288.652731
L 298.487476 286.529506
L 298.382332 284.40702
L 298.235156 282.285644
L 298.045974 280.165748
L 297.814819 278.0477
L 297.541731 275.93187
L 297.226757 273.818626
L 296.869953 271.708337
L 296.471381 269.601371
L 296.031109 267.498094
L 295.549215 265.398873
L 295.025784 263.304073
L 294.460905 261.21406
L 293.854677 259.129198
L 293.207207 257.04985
L 292.518606 254.976379
L 291.788995 252.909145
L 291.018501 250.848509
L 290.207258 248.79483
L 289.355408 246.748466
L 288.463098 244.709773
L 287.530485 242.679106
L 286.557731 240.65682
L 285.545006 238.643266
L 284.492485 236.638796
L 283.400352 234.643758
L 282.268798 232.658501
L 281.09802 230.68337
L 279.888221 228.71871
L 278.639613 226.764862
L 277.352413 224.822168
L 276.026845 222.890965
L 274.663141 220.97159
L 273.261537 219.064377
L 271.822278 217.16966
L 270.345616 215.287768
L 268.831806 213.419028
L 267.281113 211.563767
L 265.693808 209.722307
L 264.070166 207.894971
L 262.41047 206.082075
L 260.715011 204.283936
L 258.984082 202.500867
L 257.217986 200.733179
L 255.417031 198.98118
L 253.58153 197.245175
L 251.711803 195.525466
L 249.808176 193.822354
L 247.87098 192.136134
L 245.900554 190.467102
L 243.897239 188.815546
L 241.861387 187.181757
L 239.79335 185.566017
L 237.69349 183.968608
L 235.562172 182.38981
L 233.399768 180.829896
L 231.206654 179.289139
L 228.983213 177.767807
L 226.729832 176.266166
L 224.446904 174.784476
L 222.134826 173.322996
L 219.794001 171.881981
L 217.424837 170.461682
L 215.027747 169.062346
L 212.603149 167.684217
L 210.151464 166.327535
L 207.673121 164.992537
L 205.168551 163.679455
L 202.63819 162.388517
L 200.08248 161.11995
L 197.501865 159.873974
L 194.896795 158.650805
L 192.267724 157.450658
L 189.615111 156.273741
L 186.939417 155.120259
L 184.241108 153.990413
L 181.520655 152.884401
L 178.778532 151.802414
L 176.015216 150.744642
L 173.23119 149.711268
L 170.426937 148.702473
L 167.602947 147.718433
L 164.759712 146.759318
L 161.897726 145.825297
L 159.01749 144.916531
L 156.119504 144.033179
L 153.204273 143.175396
L 150.272307 142.34333
L 147.324114 141.537126
L 144.360209 140.756925
L 141.381109 140.002864
L 138.387332 139.275072
L 135.379401 138.573678
L 132.357838 137.898802
L 129.323172 137.250564
L 126.275929 136.629076
L 123.216642 136.034445
L 120.145844 135.466777
L 117.064069 134.926168
L 113.971854 134.412715
L 110.869739 133.926506
L 107.758263 133.467626
L 104.637969 133.036155
L 101.5094 132.632168
L 98.373102 132.255736
L 95.229622 131.906924
L 92.079506 131.585792
L 88.923303 131.292397
L 85.761564 131.026791
L 82.59484 130.789018
L 79.423682 130.579122
L 76.248642 130.397137
L 73.070275 130.243096
L 69.889133 130.117026
L 66.705771 130.018949
L 63.520744 129.948882
L 60.334607 129.906837
L 57.147914 129.892821
" clip-path="url(#p6ff42db5ac)" style="fill: none; stroke: #8dc9ac; stroke-linecap: square"/>
   </g>
   <g id="line2d_32">
    <path d="M 333.0607 290.776327
L 333.036663 288.349361
L 332.964556 285.922817
L 332.844391 283.497119
L 332.676191 281.072689
L 332.459983 278.649951
L 332.195805 276.229324
L 331.883705 273.811233
L 331.523735 271.396098
L 331.115959 268.984339
L 330.660447 266.576377
L 330.15728 264.172632
L 329.606544 261.773522
L 329.008336 259.379465
L 328.36276 256.990879
L 327.669929 254.60818
L 326.929963 252.231782
L 326.14299 249.862101
L 325.309149 247.499548
L 324.428585 245.144535
L 323.50145 242.797473
L 322.527907 240.458771
L 321.508125 238.128836
L 320.442281 235.808074
L 319.330562 233.49689
L 318.173162 231.195686
L 316.970281 228.904863
L 315.722129 226.62482
L 314.428925 224.355955
L 313.090892 222.098662
L 311.708265 219.853336
L 310.281284 217.620367
L 308.810199 215.400145
L 307.295264 213.193056
L 305.736744 210.999484
L 304.134912 208.819813
L 302.490045 206.654422
L 300.80243 204.503688
L 299.072362 202.367985
L 297.300142 200.247687
L 295.486078 198.143162
L 293.630487 196.054777
L 291.733693 193.982896
L 289.796024 191.92788
L 287.81782 189.890087
L 285.799425 187.869872
L 283.741191 185.867587
L 281.643475 183.883582
L 279.506644 181.9182
L 277.33107 179.971786
L 275.117133 178.044678
L 272.865216 176.137212
L 270.575715 174.249721
L 268.249026 172.382532
L 265.885555 170.535972
L 263.485715 168.710363
L 261.049923 166.906022
L 258.578604 165.123263
L 256.072189 163.362398
L 253.531113 161.623733
L 250.95582 159.907571
L 248.346759 158.214212
L 245.704384 156.543949
L 243.029156 154.897075
L 240.32154 153.273876
L 237.582009 151.674634
L 234.811039 150.09963
L 232.009114 148.549136
L 229.176722 147.023424
L 226.314356 145.522759
L 223.422515 144.047402
L 220.501703 142.597611
L 217.552429 141.173637
L 214.575207 139.775731
L 211.570554 138.404134
L 208.538996 137.059085
L 205.48106 135.74082
L 202.397279 134.449568
L 199.28819 133.185554
L 196.154335 131.948998
L 192.99626 130.740115
L 189.814515 129.559117
L 186.609655 128.406208
L 183.382237 127.281591
L 180.132826 126.18546
L 176.861985 125.118007
L 173.570286 124.079417
L 170.258302 123.069872
L 166.926611 122.089548
L 163.575791 121.138616
L 160.206428 120.21724
L 156.819109 119.325582
L 153.414423 118.463797
L 149.992963 117.632036
L 146.555327 116.830442
L 143.102113 116.059156
L 139.633923 115.318312
L 136.15136 114.60804
L 132.655032 113.928462
L 129.145548 113.279698
L 125.623519 112.66186
L 122.08956 112.075056
L 118.544285 111.519389
L 114.988313 110.994955
L 111.422262 110.501845
L 107.846755 110.040146
L 104.262415 109.609937
L 100.669866 109.211294
L 97.069733 108.844287
L 93.462644 108.508979
L 89.849229 108.205428
L 86.230115 107.933688
L 82.605934 107.693806
L 78.977318 107.485824
L 75.344898 107.309778
L 71.709307 107.165698
L 68.071179 107.05361
L 64.431149 106.973533
L 60.789849 106.925481
L 57.147914 106.909463
" clip-path="url(#p6ff42db5ac)" style="fill: none; stroke: #8dc9ac; stroke-linecap: square"/>
   </g>
   <g id="line2d_33">
    <path d="M 367.549798 290.776327
L 367.522756 288.04599
L 367.441636 285.316128
L 367.306451 282.587218
L 367.117225 279.859735
L 366.873991 277.134153
L 366.576792 274.410949
L 366.225678 271.690596
L 365.820712 268.973569
L 365.361964 266.26034
L 364.849514 263.551383
L 364.28345 260.84717
L 363.663873 258.148171
L 362.990889 255.454858
L 362.264616 252.767698
L 361.485181 250.087162
L 360.652719 247.413714
L 359.767375 244.747822
L 358.829304 242.08995
L 357.838668 239.440561
L 356.795642 236.800117
L 355.700406 234.169077
L 354.553151 231.5479
L 353.354077 228.937043
L 352.103393 226.33696
L 350.801318 223.748106
L 349.448076 221.17093
L 348.043906 218.605881
L 346.589051 216.053408
L 345.083764 213.513954
L 343.528309 210.987962
L 341.922956 208.475872
L 340.267984 205.978122
L 338.563683 203.495147
L 336.810348 201.027379
L 335.008286 198.575249
L 333.157811 196.139184
L 331.259244 193.719608
L 329.312918 191.316943
L 327.31917 188.931607
L 325.278349 186.564016
L 323.190809 184.214583
L 321.056915 181.883717
L 318.877038 179.571824
L 316.651559 177.279307
L 314.380864 175.006565
L 312.06535 172.753995
L 309.70542 170.521988
L 307.301486 168.310934
L 304.853965 166.121219
L 302.363285 163.953222
L 299.829879 161.807323
L 297.25419 159.683895
L 294.636665 157.583308
L 291.97776 155.505928
L 289.27794 153.452117
L 286.537674 151.422233
L 283.75744 149.41663
L 280.937723 147.435657
L 278.079013 145.479659
L 275.181809 143.548977
L 272.246615 141.643947
L 269.273943 139.764902
L 266.264311 137.912168
L 263.218243 136.086069
L 260.136271 134.286923
L 257.01893 132.515043
L 253.866764 130.770738
L 250.680323 129.054311
L 247.460162 127.366063
L 244.206841 125.706286
L 240.920927 124.075271
L 237.602994 122.473301
L 234.253618 120.900656
L 230.873384 119.357609
L 227.462881 117.84443
L 224.022703 116.361382
L 220.553449 114.908724
L 217.055724 113.486707
L 213.530137 112.095582
L 209.977303 110.735589
L 206.39784 109.406966
L 202.792372 108.109943
L 199.161528 106.844749
L 195.50594 105.611601
L 191.826244 104.410716
L 188.123083 103.242303
L 184.397101 102.106566
L 180.648948 101.003701
L 176.879276 99.933902
L 173.088742 98.897354
L 169.278008 97.894239
L 165.447736 96.924731
L 161.598595 95.988999
L 157.731254 95.087206
L 153.846388 94.21951
L 149.944674 93.38606
L 146.026791 92.587004
L 142.093422 91.822479
L 138.145252 91.092619
L 134.18297 90.397552
L 130.207265 89.737398
L 126.218831 89.112272
L 122.218362 88.522283
L 118.206556 87.967535
L 114.184111 87.448123
L 110.151728 86.964138
L 106.110109 86.515665
L 102.05996 86.102782
L 98.001986 85.72556
L 93.936893 85.384066
L 89.86539 85.078359
L 85.788187 84.808491
L 81.705993 84.574511
L 77.619521 84.376459
L 73.529481 84.214369
L 69.436588 84.08827
L 65.341553 83.998183
L 61.24509 83.944125
L 57.147914 83.926105
" clip-path="url(#p6ff42db5ac)" style="fill: none; stroke: #8dc9ac; stroke-linecap: square"/>
   </g>
   <g id="line2d_34">
    <path d="M 402.038896 290.776327
L 402.00885 287.742619
L 401.918716 284.709439
L 401.768511 281.677317
L 401.55826 278.64678
L 401.288 275.618356
L 400.957778 272.592574
L 400.567652 269.56996
L 400.11769 266.55104
L 399.60797 263.536342
L 399.03858 260.52639
L 398.409621 257.521708
L 397.721202 254.522821
L 396.973442 251.53025
L 396.166472 248.544517
L 395.300433 245.566143
L 394.375475 242.595646
L 393.391759 239.633544
L 392.349458 236.680353
L 391.248752 233.736587
L 390.089834 230.80276
L 388.872905 227.879382
L 387.598177 224.966963
L 386.265873 222.066011
L 384.876224 219.177031
L 383.429473 216.300525
L 381.925872 213.436997
L 380.365683 210.586943
L 378.749177 207.750862
L 377.076637 204.929246
L 375.348353 202.122588
L 373.564627 199.331377
L 371.72577 196.556099
L 369.832101 193.797238
L 367.883952 191.055274
L 365.881661 188.330685
L 363.825577 185.623946
L 361.716059 182.935528
L 359.553474 180.2659
L 357.338199 177.615527
L 355.070619 174.984871
L 352.751131 172.374389
L 350.380137 169.784538
L 347.958052 167.215768
L 345.485297 164.668527
L 342.962303 162.143258
L 340.38951 159.640402
L 337.767365 157.160395
L 335.096327 154.703669
L 332.376859 152.270651
L 329.609437 149.861766
L 326.794542 147.477434
L 323.932665 145.118069
L 321.024303 142.784084
L 318.069965 140.475884
L 315.070165 138.193872
L 312.025425 135.938445
L 308.936277 133.709997
L 305.803257 131.508916
L 302.626913 129.335585
L 299.407797 127.190382
L 296.146471 125.073683
L 292.843502 122.985855
L 289.499466 120.927262
L 286.114947 118.898263
L 282.690533 116.899211
L 279.226821 114.930456
L 275.724415 112.992339
L 272.183924 111.085198
L 268.605967 109.209367
L 264.991166 107.365171
L 261.340151 105.552931
L 257.653558 103.772965
L 253.93203 102.025582
L 250.176214 100.311085
L 246.386767 98.629775
L 242.564346 96.981944
L 238.70962 95.367879
L 234.823259 93.787861
L 230.90594 92.242166
L 226.958346 90.731062
L 222.981165 89.254814
L 218.97509 87.813679
L 214.940818 86.407906
L 210.879053 85.037743
L 206.790503 83.703426
L 202.675879 82.40519
L 198.5359 81.143259
L 194.371285 79.917854
L 190.18276 78.729188
L 185.971057 77.577468
L 181.736907 76.462896
L 177.48105 75.385665
L 173.204226 74.345963
L 168.907181 73.343971
L 164.590663 72.379863
L 160.255425 71.453809
L 155.902221 70.565968
L 151.531812 69.716496
L 147.144957 68.905541
L 142.742421 68.133243
L 138.324971 67.399739
L 133.893378 66.705154
L 129.448412 66.049612
L 124.990849 65.433224
L 120.521466 64.8561
L 116.04104 64.31834
L 111.550353 63.820036
L 107.050188 63.361277
L 102.541327 62.942142
L 98.024557 62.562704
L 93.500665 62.223029
L 88.970439 61.923176
L 84.434669 61.663198
L 79.894144 61.44314
L 75.349655 61.26304
L 70.801996 61.12293
L 66.251957 61.022834
L 61.700332 60.962769
L 57.147914 60.942747
" clip-path="url(#p6ff42db5ac)" style="fill: none; stroke: #8dc9ac; stroke-linecap: square"/>
   </g>
   <g id="line2d_35">
    <path d="M 57.147914 290.776327
L 402.038896 290.776327
" clip-path="url(#p6ff42db5ac)" style="fill: none; stroke: #8dc9ac; stroke-linecap: square"/>
   </g>
   <g id="line2d_36">
    <path d="M 57.147914 290.776327
L 396.799227 250.866145
" clip-path="url(#p6ff42db5ac)" style="fill: none; stroke: #8dc9ac; stroke-linecap: square"/>
   </g>
   <g id="line2d_37">
    <path d="M 57.147914 290.776327
L 381.239425 212.168613
" clip-path="url(#p6ff42db5ac)" style="fill: none; stroke: #8dc9ac; stroke-linecap: square"/>
   </g>
   <g id="line2d_38">
    <path d="M 57.147914 290.776327
L 355.832266 175.859537
" clip-path="url(#p6ff42db5ac)" style="fill: none; stroke: #8dc9ac; stroke-linecap: square"/>
   </g>
   <g id="line2d_39">
    <path d="M 57.147914 290.776327
L 321.349735 143.042149
" clip-path="url(#p6ff42db5ac)" style="fill: none; stroke: #8dc9ac; stroke-linecap: square"/>
   </g>
   <g id="line2d_40">
    <path d="M 57.147914 290.776327
L 278.839564 114.71359
" clip-path="url(#p6ff42db5ac)" style="fill: none; stroke: #8dc9ac; stroke-linecap: square"/>
   </g>
   <g id="line2d_41">
    <path d="M 57.147914 290.776327
L 229.593405 91.734608
" clip-path="url(#p6ff42db5ac)" style="fill: none; stroke: #8dc9ac; stroke-linecap: square"/>
   </g>
   <g id="line2d_42">
    <path d="M 57.147914 290.776327
L 175.107577 74.803408
" clip-path="url(#p6ff42db5ac)" style="fill: none; stroke: #8dc9ac; stroke-linecap: square"/>
   </g>
   <g id="line2d_43">
    <path d="M 57.147914 290.776327
L 117.037605 64.434435
" clip-path="url(#p6ff42db5ac)" style="fill: none; stroke: #8dc9ac; stroke-linecap: square"/>
   </g>
   <g id="line2d_44">
    <path d="M 57.147914 290.776327
L 57.147914 60.942747
" clip-path="url(#p6ff42db5ac)" style="fill: none; stroke: #8dc9ac; stroke-linecap: square"/>
   </g>
   <g id="line2d_45">
    <path d="M 402.038896 290.776327
L 402.00885 287.742619
L 401.918716 284.709439
L 401.768511 281.677317
L 401.55826 278.64678
L 401.288 275.618356
L 400.957778 272.592574
L 400.567652 269.56996
L 400.11769 266.55104
L 399.60797 263.536342
L 399.03858 260.52639
L 398.409621 257.521708
L 397.721202 254.522821
L 396.973442 251.53025
L 396.166472 248.544517
L 395.300433 245.566143
L 394.375475 242.595646
L 393.391759 239.633544
L 392.349458 236.680353
L 391.248752 233.736587
L 390.089834 230.80276
L 388.872905 227.879382
L 387.598177 224.966963
L 386.265873 222.066011
L 384.876224 219.177031
L 383.429473 216.300525
L 381.925872 213.436997
L 380.365683 210.586943
L 378.749177 207.750862
L 377.076637 204.929246
L 375.348353 202.122588
L 373.564627 199.331377
L 371.72577 196.556099
L 369.832101 193.797238
L 367.883952 191.055274
L 365.881661 188.330685
L 363.825577 185.623946
L 361.716059 182.935528
L 359.553474 180.2659
L 357.338199 177.615527
L 355.070619 174.984871
L 352.751131 172.374389
L 350.380137 169.784538
L 347.958052 167.215768
L 345.485297 164.668527
L 342.962303 162.143258
L 340.38951 159.640402
L 337.767365 157.160395
L 335.096327 154.703669
L 332.376859 152.270651
L 329.609437 149.861766
L 326.794542 147.477434
L 323.932665 145.118069
L 321.024303 142.784084
L 318.069965 140.475884
L 315.070165 138.193872
L 312.025425 135.938445
L 308.936277 133.709997
L 305.803257 131.508916
L 302.626913 129.335585
L 299.407797 127.190382
L 296.146471 125.073683
L 292.843502 122.985855
L 289.499466 120.927262
L 286.114947 118.898263
L 282.690533 116.899211
L 279.226821 114.930456
L 275.724415 112.992339
L 272.183924 111.085198
L 268.605967 109.209367
L 264.991166 107.365171
L 261.340151 105.552931
L 257.653558 103.772965
L 253.93203 102.025582
L 250.176214 100.311085
L 246.386767 98.629775
L 242.564346 96.981944
L 238.70962 95.367879
L 234.823259 93.787861
L 230.90594 92.242166
L 226.958346 90.731062
L 222.981165 89.254814
L 218.97509 87.813679
L 214.940818 86.407906
L 210.879053 85.037743
L 206.790503 83.703426
L 202.675879 82.40519
L 198.5359 81.143259
L 194.371285 79.917854
L 190.18276 78.729188
L 185.971057 77.577468
L 181.736907 76.462896
L 177.48105 75.385665
L 173.204226 74.345963
L 168.907181 73.343971
L 164.590663 72.379863
L 160.255425 71.453809
L 155.902221 70.565968
L 151.531812 69.716496
L 147.144957 68.905541
L 142.742421 68.133243
L 138.324971 67.399739
L 133.893378 66.705154
L 129.448412 66.049612
L 124.990849 65.433224
L 120.521466 64.8561
L 116.04104 64.31834
L 111.550353 63.820036
L 107.050188 63.361277
L 102.541327 62.942142
L 98.024557 62.562704
L 93.500665 62.223029
L 88.970439 61.923176
L 84.434669 61.663198
L 79.894144 61.44314
L 75.349655 61.26304
L 70.801996 61.12293
L 66.251957 61.022834
L 61.700332 60.962769
L 57.147914 60.942747
" clip-path="url(#p6ff42db5ac)" style="fill: none; stroke: #23745c; stroke-width: 1.8; stroke-linecap: square"/>
   </g>
   <g id="patch_3">
    <path d="M 39.903365 311.598979
L 39.903365 40.120095
" style="fill: none; stroke: #000000; stroke-width: 0.8; stroke-linejoin: miter; stroke-linecap: square"/>
   </g>
   <g id="patch_4">
    <path d="M 39.903365 311.598979
L 419.283445 311.598979
" style="fill: none; stroke: #000000; stroke-width: 0.8; stroke-linejoin: miter; stroke-linecap: square"/>
   </g>
   <g id="text_15">
    <text style="font-size: 12px; font-family: 'DejaVu Sans'; text-anchor: middle; fill: #17363d" x="229.593405" y="34.120095" transform="rotate(-0 229.593405 34.120095)">Un quart de disque devient un quart d’ellipse</text>
   </g>
   <g id="legend_1">
    <g id="patch_5">
     <path d="M 315.400945 71.161345
L 413.683445 71.161345
Q 415.283445 71.161345 415.283445 69.561345
L 415.283445 45.720095
Q 415.283445 44.120095 413.683445 44.120095
L 315.400945 44.120095
Q 313.800945 44.120095 313.800945 45.720095
L 313.800945 69.561345
Q 313.800945 71.161345 315.400945 71.161345
z
" style="fill: #ffffff; opacity: 0.8; stroke: #cccccc; stroke-linejoin: miter"/>
    </g>
    <g id="line2d_46">
     <path d="M 317.000945 50.918845
L 325.000945 50.918845
L 333.000945 50.918845
" style="fill: none; stroke: #8dc9ac; stroke-linecap: square"/>
    </g>
    <g id="text_16">
     <text style="font-size: 8px; font-family: 'DejaVu Sans'; text-anchor: start; fill: #17363d" x="339.400945" y="53.718845" transform="rotate(-0 339.400945 53.718845)">Grille transformée</text>
    </g>
    <g id="line2d_47">
     <path d="M 317.000945 63.23947
L 325.000945 63.23947
L 333.000945 63.23947
" style="fill: none; stroke: #23745c; stroke-width: 1.8; stroke-linecap: square"/>
    </g>
    <g id="text_17">
     <text style="font-size: 8px; font-family: 'DejaVu Sans'; text-anchor: start; fill: #17363d" x="339.400945" y="66.03947" transform="rotate(-0 339.400945 66.03947)">Frontière de Ω</text>
    </g>
   </g>
  </g>
  <g id="axes_2">
   <g id="patch_6">
    <path d="M 476.824227 311.598979
L 856.204307 311.598979
L 856.204307 40.120095
L 476.824227 40.120095
z
" style="fill: #ffffff"/>
   </g>
   <g id="matplotlib.axis_3">
    <g id="xtick_8">
     <g id="line2d_48">
      <path d="M 541.099364 311.598979
L 541.099364 40.120095
" clip-path="url(#p91237813b5)" style="fill: none; stroke: #b0b0b0; stroke-opacity: 0.18; stroke-width: 0.8; stroke-linecap: square"/>
     </g>
     <g id="line2d_49">
      <g>
       <use xlink:href="#m4df893dc3d" x="541.099364" y="311.598979" style="stroke: #000000; stroke-width: 0.8"/>
      </g>
     </g>
     <g id="text_18">
      <text style="font-size: 10px; font-family: 'DejaVu Sans'; text-anchor: middle" x="541.099364" y="326.196635" transform="rotate(-0 541.099364 326.196635)">5</text>
     </g>
    </g>
    <g id="xtick_9">
     <g id="line2d_50">
      <path d="M 619.483678 311.598979
L 619.483678 40.120095
" clip-path="url(#p91237813b5)" style="fill: none; stroke: #b0b0b0; stroke-opacity: 0.18; stroke-width: 0.8; stroke-linecap: square"/>
     </g>
     <g id="line2d_51">
      <g>
       <use xlink:href="#m4df893dc3d" x="619.483678" y="311.598979" style="stroke: #000000; stroke-width: 0.8"/>
      </g>
     </g>
     <g id="text_19">
      <text style="font-size: 10px; font-family: 'DejaVu Sans'; text-anchor: middle" x="619.483678" y="326.196635" transform="rotate(-0 619.483678 326.196635)">10</text>
     </g>
    </g>
    <g id="xtick_10">
     <g id="line2d_52">
      <path d="M 697.867993 311.598979
L 697.867993 40.120095
" clip-path="url(#p91237813b5)" style="fill: none; stroke: #b0b0b0; stroke-opacity: 0.18; stroke-width: 0.8; stroke-linecap: square"/>
     </g>
     <g id="line2d_53">
      <g>
       <use xlink:href="#m4df893dc3d" x="697.867993" y="311.598979" style="stroke: #000000; stroke-width: 0.8"/>
      </g>
     </g>
     <g id="text_20">
      <text style="font-size: 10px; font-family: 'DejaVu Sans'; text-anchor: middle" x="697.867993" y="326.196635" transform="rotate(-0 697.867993 326.196635)">15</text>
     </g>
    </g>
    <g id="xtick_11">
     <g id="line2d_54">
      <path d="M 776.252307 311.598979
L 776.252307 40.120095
" clip-path="url(#p91237813b5)" style="fill: none; stroke: #b0b0b0; stroke-opacity: 0.18; stroke-width: 0.8; stroke-linecap: square"/>
     </g>
     <g id="line2d_55">
      <g>
       <use xlink:href="#m4df893dc3d" x="776.252307" y="311.598979" style="stroke: #000000; stroke-width: 0.8"/>
      </g>
     </g>
     <g id="text_21">
      <text style="font-size: 10px; font-family: 'DejaVu Sans'; text-anchor: middle" x="776.252307" y="326.196635" transform="rotate(-0 776.252307 326.196635)">20</text>
     </g>
    </g>
    <g id="xtick_12">
     <g id="line2d_56">
      <path d="M 854.636621 311.598979
L 854.636621 40.120095
" clip-path="url(#p91237813b5)" style="fill: none; stroke: #b0b0b0; stroke-opacity: 0.18; stroke-width: 0.8; stroke-linecap: square"/>
     </g>
     <g id="line2d_57">
      <g>
       <use xlink:href="#m4df893dc3d" x="854.636621" y="311.598979" style="stroke: #000000; stroke-width: 0.8"/>
      </g>
     </g>
     <g id="text_22">
      <text style="font-size: 10px; font-family: 'DejaVu Sans'; text-anchor: middle" x="854.636621" y="326.196635" transform="rotate(-0 854.636621 326.196635)">25</text>
     </g>
    </g>
    <g id="text_23">
     <text style="font-size: 10px; font-family: 'DejaVu Sans'; text-anchor: middle; fill: #17363d" x="666.514267" y="340.197416" transform="rotate(-0 666.514267 340.197416)">Nœuds par variable</text>
    </g>
   </g>
   <g id="matplotlib.axis_4">
    <g id="ytick_6">
     <g id="line2d_58">
      <path d="M 476.824227 299.259029
L 856.204307 299.259029
" clip-path="url(#p91237813b5)" style="fill: none; stroke: #b0b0b0; stroke-opacity: 0.18; stroke-width: 0.8; stroke-linecap: square"/>
     </g>
     <g id="line2d_59">
      <g>
       <use xlink:href="#m03fcabb218" x="476.824227" y="299.259029" style="stroke: #000000; stroke-width: 0.8"/>
      </g>
     </g>
     <g id="text_24">
      <!-- $\mathdefault{10^{-16}}$ -->
      <g transform="translate(441.924227 303.959029)">
       <text>
        <tspan x="0" y="-0.674688" style="font-size: 10px; font-family: 'DejaVu Sans'">1</tspan>
        <tspan x="6.362305" y="-0.674688" style="font-size: 10px; font-family: 'DejaVu Sans'">0</tspan>
        <tspan x="12.820312" y="-4.804688" style="font-size: 7px; font-family: 'DejaVu Sans'">−</tspan>
        <tspan x="18.685547" y="-4.804688" style="font-size: 7px; font-family: 'DejaVu Sans'">1</tspan>
        <tspan x="23.13916" y="-4.804688" style="font-size: 7px; font-family: 'DejaVu Sans'">6</tspan>
       </text>
      </g>
     </g>
    </g>
    <g id="ytick_7">
     <g id="line2d_60">
      <path d="M 476.824227 267.791324
L 856.204307 267.791324
" clip-path="url(#p91237813b5)" style="fill: none; stroke: #b0b0b0; stroke-opacity: 0.18; stroke-width: 0.8; stroke-linecap: square"/>
     </g>
     <g id="line2d_61">
      <g>
       <use xlink:href="#m03fcabb218" x="476.824227" y="267.791324" style="stroke: #000000; stroke-width: 0.8"/>
      </g>
     </g>
     <g id="text_25">
      <!-- $\mathdefault{10^{-14}}$ -->
      <g transform="translate(441.924227 272.441324)">
       <text>
        <tspan x="0" y="-0.762187" style="font-size: 10px; font-family: 'DejaVu Sans'">1</tspan>
        <tspan x="6.362305" y="-0.762187" style="font-size: 10px; font-family: 'DejaVu Sans'">0</tspan>
        <tspan x="12.820312" y="-4.892187" style="font-size: 7px; font-family: 'DejaVu Sans'">−</tspan>
        <tspan x="18.685547" y="-4.892187" style="font-size: 7px; font-family: 'DejaVu Sans'">1</tspan>
        <tspan x="23.13916" y="-4.892187" style="font-size: 7px; font-family: 'DejaVu Sans'">4</tspan>
       </text>
      </g>
     </g>
    </g>
    <g id="ytick_8">
     <g id="line2d_62">
      <path d="M 476.824227 236.323619
L 856.204307 236.323619
" clip-path="url(#p91237813b5)" style="fill: none; stroke: #b0b0b0; stroke-opacity: 0.18; stroke-width: 0.8; stroke-linecap: square"/>
     </g>
     <g id="line2d_63">
      <g>
       <use xlink:href="#m03fcabb218" x="476.824227" y="236.323619" style="stroke: #000000; stroke-width: 0.8"/>
      </g>
     </g>
     <g id="text_26">
      <!-- $\mathdefault{10^{-12}}$ -->
      <g transform="translate(441.924227 241.023619)">
       <text>
        <tspan x="0" y="-0.674688" style="font-size: 10px; font-family: 'DejaVu Sans'">1</tspan>
        <tspan x="6.362305" y="-0.674688" style="font-size: 10px; font-family: 'DejaVu Sans'">0</tspan>
        <tspan x="12.820312" y="-4.804688" style="font-size: 7px; font-family: 'DejaVu Sans'">−</tspan>
        <tspan x="18.685547" y="-4.804688" style="font-size: 7px; font-family: 'DejaVu Sans'">1</tspan>
        <tspan x="23.13916" y="-4.804688" style="font-size: 7px; font-family: 'DejaVu Sans'">2</tspan>
       </text>
      </g>
     </g>
    </g>
    <g id="ytick_9">
     <g id="line2d_64">
      <path d="M 476.824227 204.855913
L 856.204307 204.855913
" clip-path="url(#p91237813b5)" style="fill: none; stroke: #b0b0b0; stroke-opacity: 0.18; stroke-width: 0.8; stroke-linecap: square"/>
     </g>
     <g id="line2d_65">
      <g>
       <use xlink:href="#m03fcabb218" x="476.824227" y="204.855913" style="stroke: #000000; stroke-width: 0.8"/>
      </g>
     </g>
     <g id="text_27">
      <!-- $\mathdefault{10^{-10}}$ -->
      <g transform="translate(441.924227 209.555913)">
       <text>
        <tspan x="0" y="-0.674688" style="font-size: 10px; font-family: 'DejaVu Sans'">1</tspan>
        <tspan x="6.362305" y="-0.674688" style="font-size: 10px; font-family: 'DejaVu Sans'">0</tspan>
        <tspan x="12.820312" y="-4.804688" style="font-size: 7px; font-family: 'DejaVu Sans'">−</tspan>
        <tspan x="18.685547" y="-4.804688" style="font-size: 7px; font-family: 'DejaVu Sans'">1</tspan>
        <tspan x="23.13916" y="-4.804688" style="font-size: 7px; font-family: 'DejaVu Sans'">0</tspan>
       </text>
      </g>
     </g>
    </g>
    <g id="ytick_10">
     <g id="line2d_66">
      <path d="M 476.824227 173.388208
L 856.204307 173.388208
" clip-path="url(#p91237813b5)" style="fill: none; stroke: #b0b0b0; stroke-opacity: 0.18; stroke-width: 0.8; stroke-linecap: square"/>
     </g>
     <g id="line2d_67">
      <g>
       <use xlink:href="#m03fcabb218" x="476.824227" y="173.388208" style="stroke: #000000; stroke-width: 0.8"/>
      </g>
     </g>
     <g id="text_28">
      <!-- $\mathdefault{10^{-8}}$ -->
      <g transform="translate(446.324227 178.088208)">
       <text>
        <tspan x="0" y="-0.674688" style="font-size: 10px; font-family: 'DejaVu Sans'">1</tspan>
        <tspan x="6.362305" y="-0.674688" style="font-size: 10px; font-family: 'DejaVu Sans'">0</tspan>
        <tspan x="12.820312" y="-4.804688" style="font-size: 7px; font-family: 'DejaVu Sans'">−</tspan>
        <tspan x="18.685547" y="-4.804688" style="font-size: 7px; font-family: 'DejaVu Sans'">8</tspan>
       </text>
      </g>
     </g>
    </g>
    <g id="ytick_11">
     <g id="line2d_68">
      <path d="M 476.824227 141.920503
L 856.204307 141.920503
" clip-path="url(#p91237813b5)" style="fill: none; stroke: #b0b0b0; stroke-opacity: 0.18; stroke-width: 0.8; stroke-linecap: square"/>
     </g>
     <g id="line2d_69">
      <g>
       <use xlink:href="#m03fcabb218" x="476.824227" y="141.920503" style="stroke: #000000; stroke-width: 0.8"/>
      </g>
     </g>
     <g id="text_29">
      <!-- $\mathdefault{10^{-6}}$ -->
      <g transform="translate(446.324227 146.620503)">
       <text>
        <tspan x="0" y="-0.674688" style="font-size: 10px; font-family: 'DejaVu Sans'">1</tspan>
        <tspan x="6.362305" y="-0.674688" style="font-size: 10px; font-family: 'DejaVu Sans'">0</tspan>
        <tspan x="12.820312" y="-4.804688" style="font-size: 7px; font-family: 'DejaVu Sans'">−</tspan>
        <tspan x="18.685547" y="-4.804688" style="font-size: 7px; font-family: 'DejaVu Sans'">6</tspan>
       </text>
      </g>
     </g>
    </g>
    <g id="ytick_12">
     <g id="line2d_70">
      <path d="M 476.824227 110.452797
L 856.204307 110.452797
" clip-path="url(#p91237813b5)" style="fill: none; stroke: #b0b0b0; stroke-opacity: 0.18; stroke-width: 0.8; stroke-linecap: square"/>
     </g>
     <g id="line2d_71">
      <g>
       <use xlink:href="#m03fcabb218" x="476.824227" y="110.452797" style="stroke: #000000; stroke-width: 0.8"/>
      </g>
     </g>
     <g id="text_30">
      <!-- $\mathdefault{10^{-4}}$ -->
      <g transform="translate(446.324227 115.102797)">
       <text>
        <tspan x="0" y="-0.762187" style="font-size: 10px; font-family: 'DejaVu Sans'">1</tspan>
        <tspan x="6.362305" y="-0.762187" style="font-size: 10px; font-family: 'DejaVu Sans'">0</tspan>
        <tspan x="12.820312" y="-4.892187" style="font-size: 7px; font-family: 'DejaVu Sans'">−</tspan>
        <tspan x="18.685547" y="-4.892187" style="font-size: 7px; font-family: 'DejaVu Sans'">4</tspan>
       </text>
      </g>
     </g>
    </g>
    <g id="ytick_13">
     <g id="line2d_72">
      <path d="M 476.824227 78.985092
L 856.204307 78.985092
" clip-path="url(#p91237813b5)" style="fill: none; stroke: #b0b0b0; stroke-opacity: 0.18; stroke-width: 0.8; stroke-linecap: square"/>
     </g>
     <g id="line2d_73">
      <g>
       <use xlink:href="#m03fcabb218" x="476.824227" y="78.985092" style="stroke: #000000; stroke-width: 0.8"/>
      </g>
     </g>
     <g id="text_31">
      <!-- $\mathdefault{10^{-2}}$ -->
      <g transform="translate(446.324227 83.685092)">
       <text>
        <tspan x="0" y="-0.674688" style="font-size: 10px; font-family: 'DejaVu Sans'">1</tspan>
        <tspan x="6.362305" y="-0.674688" style="font-size: 10px; font-family: 'DejaVu Sans'">0</tspan>
        <tspan x="12.820312" y="-4.804688" style="font-size: 7px; font-family: 'DejaVu Sans'">−</tspan>
        <tspan x="18.685547" y="-4.804688" style="font-size: 7px; font-family: 'DejaVu Sans'">2</tspan>
       </text>
      </g>
     </g>
    </g>
    <g id="ytick_14">
     <g id="line2d_74">
      <path d="M 476.824227 47.517387
L 856.204307 47.517387
" clip-path="url(#p91237813b5)" style="fill: none; stroke: #b0b0b0; stroke-opacity: 0.18; stroke-width: 0.8; stroke-linecap: square"/>
     </g>
     <g id="line2d_75">
      <g>
       <use xlink:href="#m03fcabb218" x="476.824227" y="47.517387" style="stroke: #000000; stroke-width: 0.8"/>
      </g>
     </g>
     <g id="text_32">
      <!-- $\mathdefault{10^{0}}$ -->
      <g transform="translate(452.224227 52.217387)">
       <text>
        <tspan x="0" y="-0.674688" style="font-size: 10px; font-family: 'DejaVu Sans'">1</tspan>
        <tspan x="6.362305" y="-0.674688" style="font-size: 10px; font-family: 'DejaVu Sans'">0</tspan>
        <tspan x="12.820312" y="-4.804688" style="font-size: 7px; font-family: 'DejaVu Sans'">0</tspan>
       </text>
      </g>
     </g>
    </g>
    <g id="text_33">
     <text style="font-size: 10px; font-family: 'DejaVu Sans'; text-anchor: middle; fill: #17363d" x="435.521883" y="175.859537" transform="rotate(-90 435.521883 175.859537)">Erreur absolue</text>
    </g>
   </g>
   <g id="line2d_76">
    <path d="M 494.068776 52.460044
L 509.745639 61.840089
L 525.422501 86.740543
L 541.099364 115.021628
L 556.776227 145.987037
L 572.45309 179.187817
L 588.129953 214.279171
L 603.806816 249.004901
L 619.483678 262.619426
L 635.160541 265.39002
L 650.837404 265.39002
L 666.514267 299.259029
L 682.19113 299.259029
L 697.867993 265.39002
L 713.544855 255.917297
L 729.221718 257.883065
L 744.898581 246.234307
L 760.575444 259.128891
L 776.252307 246.234307
L 791.92917 253.741263
L 807.606032 247.605515
L 823.282895 299.259029
L 838.959758 253.741263
" clip-path="url(#p91237813b5)" style="fill: none; stroke: #23745c; stroke-width: 1.8; stroke-linecap: square"/>
   </g>
   <g id="patch_7">
    <path d="M 476.824227 311.598979
L 476.824227 40.120095
" style="fill: none; stroke: #000000; stroke-width: 0.8; stroke-linejoin: miter; stroke-linecap: square"/>
   </g>
   <g id="patch_8">
    <path d="M 476.824227 311.598979
L 856.204307 311.598979
" style="fill: none; stroke: #000000; stroke-width: 0.8; stroke-linejoin: miter; stroke-linecap: square"/>
   </g>
   <g id="text_34">
    <text style="font-size: 12px; font-family: 'DejaVu Sans'; text-anchor: middle; fill: #17363d" x="666.514267" y="34.120095" transform="rotate(-0 666.514267 34.120095)">Convergence de la quadrature</text>
   </g>
   <g id="legend_2">
    <g id="patch_9">
     <path d="M 800.406807 58.52072
L 850.604307 58.52072
Q 852.204307 58.52072 852.204307 56.92072
L 852.204307 45.720095
Q 852.204307 44.120095 850.604307 44.120095
L 800.406807 44.120095
Q 798.806807 44.120095 798.806807 45.720095
L 798.806807 56.92072
Q 798.806807 58.52072 800.406807 58.52072
z
" style="fill: #ffffff; opacity: 0.8; stroke: #cccccc; stroke-linejoin: miter"/>
    </g>
    <g id="line2d_77">
     <path d="M 802.006807 50.598845
L 810.006807 50.598845
L 818.006807 50.598845
" style="fill: none; stroke: #23745c; stroke-width: 1.8; stroke-linecap: square"/>
    </g>
    <g id="text_35">
     <text style="font-size: 8px; font-family: 'DejaVu Sans'; text-anchor: start; fill: #17363d" x="824.406807" y="53.398845" transform="rotate(-0 824.406807 53.398845)">Erreur</text>
    </g>
   </g>
  </g>
  <g id="text_36">
   <text style="font-weight: 700; font-size: 16px; font-family: 'DejaVu Sans'; text-anchor: middle; fill: #17363d" x="432" y="15.15774" transform="rotate(-0 432 15.15774)">TP · Changement de variables sur une ellipse</text>
  </g>
 </g>
 <defs>
  <clipPath id="p6ff42db5ac">
   <rect x="39.903365" y="40.120095" width="379.38008" height="271.478884"/>
  </clipPath>
  <clipPath id="p91237813b5">
   <rect x="476.824227" y="40.120095" width="379.38008" height="271.478884"/>
  </clipPath>
 </defs>
</svg>
