<?xml version="1.0" encoding="utf-8" standalone="no"?>
<!DOCTYPE svg PUBLIC "-//W3C//DTD SVG 1.1//EN"
  "http://www.w3.org/Graphics/SVG/1.1/DTD/svg11.dtd">
<svg xmlns:xlink="http://www.w3.org/1999/xlink" width="964.8pt" height="590.4pt" viewBox="0 0 964.8 590.4" xmlns="http://www.w3.org/2000/svg" version="1.1">
 <metadata>
  <rdf:RDF xmlns:dc="http://purl.org/dc/elements/1.1/" xmlns:cc="http://creativecommons.org/ns#" xmlns:rdf="http://www.w3.org/1999/02/22-rdf-syntax-ns#">
   <cc:Work>
    <dc:type rdf:resource="http://purl.org/dc/dcmitype/StillImage"/>
    <dc:format>image/svg+xml</dc:format>
    <dc:creator>
     <cc:Agent>
      <dc:title>Matplotlib v3.11.2, https://matplotlib.org/</dc:title>
     </cc:Agent>
    </dc:creator>
   </cc:Work>
  </rdf:RDF>
 </metadata>
 <defs>
  <style type="text/css">*{stroke-linejoin: round; stroke-linecap: butt}</style>
 </defs>
 <g id="figure_1">
  <g id="patch_1">
   <path d="M 0 590.4
L 964.8 590.4
L 964.8 0
L 0 0
z
" style="fill: #fbfaf5"/>
  </g>
  <g id="axes_1">
   <g id="patch_2">
    <path d="M 44.854771 558.039057
L 486.477507 558.039057
L 486.477507 44.960173
L 44.854771 44.960173
z
" style="fill: #fbfaf5"/>
   </g>
   <g id="matplotlib.axis_1">
    <g id="xtick_1">
     <g id="line2d_1">
      <path d="M 103.645807 558.039057
L 103.645807 44.960173
" clip-path="url(#p78c5b5fb3c)" style="fill: none; stroke: #b0b0b0; stroke-opacity: 0.17; stroke-width: 0.8; stroke-linecap: square"/>
     </g>
     <g id="line2d_2">
      <defs>
       <path id="m095e6037ff" d="M 0 0
L 0 3.5
" style="stroke: #000000; stroke-width: 0.8"/>
      </defs>
      <g>
       <use xlink:href="#m095e6037ff" x="103.645807" y="558.039057" style="stroke: #000000; stroke-width: 0.8"/>
      </g>
     </g>
     <g id="text_1">
      <text style="font-size: 9px; font-family: 'DejaVu Sans'; text-anchor: middle" x="103.645807" y="571.876948" transform="rotate(-0 103.645807 571.876948)">−0.4</text>
     </g>
    </g>
    <g id="xtick_2">
     <g id="line2d_3">
      <path d="M 184.258682 558.039057
L 184.258682 44.960173
" clip-path="url(#p78c5b5fb3c)" style="fill: none; stroke: #b0b0b0; stroke-opacity: 0.17; stroke-width: 0.8; stroke-linecap: square"/>
     </g>
     <g id="line2d_4">
      <g>
       <use xlink:href="#m095e6037ff" x="184.258682" y="558.039057" style="stroke: #000000; stroke-width: 0.8"/>
      </g>
     </g>
     <g id="text_2">
      <text style="font-size: 9px; font-family: 'DejaVu Sans'; text-anchor: middle" x="184.258682" y="571.876948" transform="rotate(-0 184.258682 571.876948)">−0.2</text>
     </g>
    </g>
    <g id="xtick_3">
     <g id="line2d_5">
      <path d="M 264.871558 558.039057
L 264.871558 44.960173
" clip-path="url(#p78c5b5fb3c)" style="fill: none; stroke: #b0b0b0; stroke-opacity: 0.17; stroke-width: 0.8; stroke-linecap: square"/>
     </g>
     <g id="line2d_6">
      <g>
       <use xlink:href="#m095e6037ff" x="264.871558" y="558.039057" style="stroke: #000000; stroke-width: 0.8"/>
      </g>
     </g>
     <g id="text_3">
      <text style="font-size: 9px; font-family: 'DejaVu Sans'; text-anchor: middle" x="264.871558" y="571.876948" transform="rotate(-0 264.871558 571.876948)">0.0</text>
     </g>
    </g>
    <g id="xtick_4">
     <g id="line2d_7">
      <path d="M 345.484433 558.039057
L 345.484433 44.960173
" clip-path="url(#p78c5b5fb3c)" style="fill: none; stroke: #b0b0b0; stroke-opacity: 0.17; stroke-width: 0.8; stroke-linecap: square"/>
     </g>
     <g id="line2d_8">
      <g>
       <use xlink:href="#m095e6037ff" x="345.484433" y="558.039057" style="stroke: #000000; stroke-width: 0.8"/>
      </g>
     </g>
     <g id="text_4">
      <text style="font-size: 9px; font-family: 'DejaVu Sans'; text-anchor: middle" x="345.484433" y="571.876948" transform="rotate(-0 345.484433 571.876948)">0.2</text>
     </g>
    </g>
    <g id="xtick_5">
     <g id="line2d_9">
      <path d="M 426.097308 558.039057
L 426.097308 44.960173
" clip-path="url(#p78c5b5fb3c)" style="fill: none; stroke: #b0b0b0; stroke-opacity: 0.17; stroke-width: 0.8; stroke-linecap: square"/>
     </g>
     <g id="line2d_10">
      <g>
       <use xlink:href="#m095e6037ff" x="426.097308" y="558.039057" style="stroke: #000000; stroke-width: 0.8"/>
      </g>
     </g>
     <g id="text_5">
      <text style="font-size: 9px; font-family: 'DejaVu Sans'; text-anchor: middle" x="426.097308" y="571.876948" transform="rotate(-0 426.097308 571.876948)">0.4</text>
     </g>
    </g>
    <g id="text_6">
     <text style="font-size: 9px; font-family: 'DejaVu Sans'; text-anchor: middle; fill: #173944" x="265.666139" y="584.876948" transform="rotate(-0 265.666139 584.876948)">x (m)</text>
    </g>
   </g>
   <g id="matplotlib.axis_2">
    <g id="ytick_1">
     <g id="line2d_11">
      <path d="M 44.854771 542.589118
L 486.477507 542.589118
" clip-path="url(#p78c5b5fb3c)" style="fill: none; stroke: #b0b0b0; stroke-opacity: 0.17; stroke-width: 0.8; stroke-linecap: square"/>
     </g>
     <g id="line2d_12">
      <defs>
       <path id="med83fb7d65" d="M 0 0
L -3.5 0
" style="stroke: #000000; stroke-width: 0.8"/>
      </defs>
      <g>
       <use xlink:href="#med83fb7d65" x="44.854771" y="542.589118" style="stroke: #000000; stroke-width: 0.8"/>
      </g>
     </g>
     <g id="text_7">
      <text style="font-size: 9px; font-family: 'DejaVu Sans'; text-anchor: end" x="37.854771" y="546.008063" transform="rotate(-0 37.854771 546.008063)">−0.6</text>
     </g>
    </g>
    <g id="ytick_2">
     <g id="line2d_13">
      <path d="M 44.854771 461.976243
L 486.477507 461.976243
" clip-path="url(#p78c5b5fb3c)" style="fill: none; stroke: #b0b0b0; stroke-opacity: 0.17; stroke-width: 0.8; stroke-linecap: square"/>
     </g>
     <g id="line2d_14">
      <g>
       <use xlink:href="#med83fb7d65" x="44.854771" y="461.976243" style="stroke: #000000; stroke-width: 0.8"/>
      </g>
     </g>
     <g id="text_8">
      <text style="font-size: 9px; font-family: 'DejaVu Sans'; text-anchor: end" x="37.854771" y="465.395188" transform="rotate(-0 37.854771 465.395188)">−0.4</text>
     </g>
    </g>
    <g id="ytick_3">
     <g id="line2d_15">
      <path d="M 44.854771 381.363367
L 486.477507 381.363367
" clip-path="url(#p78c5b5fb3c)" style="fill: none; stroke: #b0b0b0; stroke-opacity: 0.17; stroke-width: 0.8; stroke-linecap: square"/>
     </g>
     <g id="line2d_16">
      <g>
       <use xlink:href="#med83fb7d65" x="44.854771" y="381.363367" style="stroke: #000000; stroke-width: 0.8"/>
      </g>
     </g>
     <g id="text_9">
      <text style="font-size: 9px; font-family: 'DejaVu Sans'; text-anchor: end" x="37.854771" y="384.782313" transform="rotate(-0 37.854771 384.782313)">−0.2</text>
     </g>
    </g>
    <g id="ytick_4">
     <g id="line2d_17">
      <path d="M 44.854771 300.750492
L 486.477507 300.750492
" clip-path="url(#p78c5b5fb3c)" style="fill: none; stroke: #b0b0b0; stroke-opacity: 0.17; stroke-width: 0.8; stroke-linecap: square"/>
     </g>
     <g id="line2d_18">
      <g>
       <use xlink:href="#med83fb7d65" x="44.854771" y="300.750492" style="stroke: #000000; stroke-width: 0.8"/>
      </g>
     </g>
     <g id="text_10">
      <text style="font-size: 9px; font-family: 'DejaVu Sans'; text-anchor: end" x="37.854771" y="304.169437" transform="rotate(-0 37.854771 304.169437)">0.0</text>
     </g>
    </g>
    <g id="ytick_5">
     <g id="line2d_19">
      <path d="M 44.854771 220.137617
L 486.477507 220.137617
" clip-path="url(#p78c5b5fb3c)" style="fill: none; stroke: #b0b0b0; stroke-opacity: 0.17; stroke-width: 0.8; stroke-linecap: square"/>
     </g>
     <g id="line2d_20">
      <g>
       <use xlink:href="#med83fb7d65" x="44.854771" y="220.137617" style="stroke: #000000; stroke-width: 0.8"/>
      </g>
     </g>
     <g id="text_11">
      <text style="font-size: 9px; font-family: 'DejaVu Sans'; text-anchor: end" x="37.854771" y="223.556562" transform="rotate(-0 37.854771 223.556562)">0.2</text>
     </g>
    </g>
    <g id="ytick_6">
     <g id="line2d_21">
      <path d="M 44.854771 139.524741
L 486.477507 139.524741
" clip-path="url(#p78c5b5fb3c)" style="fill: none; stroke: #b0b0b0; stroke-opacity: 0.17; stroke-width: 0.8; stroke-linecap: square"/>
     </g>
     <g id="line2d_22">
      <g>
       <use xlink:href="#med83fb7d65" x="44.854771" y="139.524741" style="stroke: #000000; stroke-width: 0.8"/>
      </g>
     </g>
     <g id="text_12">
      <text style="font-size: 9px; font-family: 'DejaVu Sans'; text-anchor: end" x="37.854771" y="142.943687" transform="rotate(-0 37.854771 142.943687)">0.4</text>
     </g>
    </g>
    <g id="ytick_7">
     <g id="line2d_23">
      <path d="M 44.854771 58.911866
L 486.477507 58.911866
" clip-path="url(#p78c5b5fb3c)" style="fill: none; stroke: #b0b0b0; stroke-opacity: 0.17; stroke-width: 0.8; stroke-linecap: square"/>
     </g>
     <g id="line2d_24">
      <g>
       <use xlink:href="#med83fb7d65" x="44.854771" y="58.911866" style="stroke: #000000; stroke-width: 0.8"/>
      </g>
     </g>
     <g id="text_13">
      <text style="font-size: 9px; font-family: 'DejaVu Sans'; text-anchor: end" x="37.854771" y="62.330811" transform="rotate(-0 37.854771 62.330811)">0.6</text>
     </g>
    </g>
    <g id="text_14">
     <text style="font-size: 9px; font-family: 'DejaVu Sans'; text-anchor: middle; fill: #173944" x="9.838131" y="301.499615" transform="rotate(-90 9.838131 301.499615)">y (m)</text>
    </g>
   </g>
   <g id="line2d_25">
    <path d="M 466.403746 300.750492
L 64.928532 300.658812
L 372.857853 300.858536
L 466.403661 300.935349
L 136.410234 300.567572
L 64.9287 300.475413
L 411.781947 301.02397
L 466.403407 301.120205
L 101.829026 300.374274
L 64.929037 300.292015
L 441.474889 301.237679
L 466.402983 301.305061
L 77.492635 300.148412
L 64.929541 300.108617
L 466.40239 301.489916
L 179.064105 300.383854
L 64.930214 299.925219
L 372.85673 301.254738
L 466.401627 301.674771
L 136.41177 300.096246
L 64.931055 299.741822
L 411.779955 301.562985
L 466.400694 301.859625
L 101.831503 299.776072
L 64.932065 299.558426
L 441.471913 301.885635
L 466.399592 302.044479
L 77.496105 299.46092
L 64.933242 299.375031
L 466.39832 302.229331
L 179.066027 300.069027
L 64.934588 299.191637
L 372.854153 301.650934
L 466.396879 302.414182
L 136.415035 299.62493
L 64.936102 299.008245
L 411.775985 302.101988
L 466.395268 302.599031
L 101.836176 299.177882
L 64.937784 298.824853
L 441.466559 302.533577
L 466.393488 302.783879
L 77.502098 298.773446
L 64.939634 298.641464
L 466.391538 302.968725
L 466.391538 302.968725
" clip-path="url(#p78c5b5fb3c)" style="fill: none; stroke: #17675e; stroke-width: 1.5; stroke-linecap: square"/>
   </g>
   <g id="line2d_26">
    <path d="M 198.163489 125.728664
L 193.652175 113.893957
L 336.561274 489.100604
L 234.462624 220.711736
L 193.8236 113.828709
L 303.121727 401.548363
L 336.388479 489.166282
L 219.40242 180.775943
L 193.995085 113.763619
L 316.825205 438.016211
L 336.215624 489.231802
L 207.268195 148.352546
L 194.16663 113.698686
L 327.202918 465.882243
L 336.042708 489.297164
L 198.806096 125.485089
L 194.338234 113.63391
L 335.869733 489.362366
L 234.756492 220.600703
L 194.509897 113.569291
L 302.751641 401.688025
L 335.696698 489.42741
L 219.842914 180.609924
L 194.68162 113.504831
L 316.321225 438.205906
L 335.523603 489.492296
L 207.827733 148.142224
L 194.853401 113.440527
L 326.596628 466.109826
L 335.350449 489.557022
L 199.449592 125.243874
L 195.025242 113.376382
L 335.177235 489.62159
L 235.050766 220.49075
L 195.197141 113.312393
L 302.381045 401.826328
L 335.003963 489.685999
L 220.284015 180.445522
L 195.369099 113.248563
L 315.816553 438.39375
L 334.830631 489.750249
L 208.388039 147.933957
L 195.541115 113.18489
L 325.989507 466.335183
L 334.657241 489.81434
L 200.093968 125.005021
L 200.093968 125.005021
" clip-path="url(#p78c5b5fb3c)" style="fill: none; stroke: #bc8038; stroke-width: 1.5; stroke-linecap: square"/>
   </g>
   <g id="line2d_27">
    <path d="M 155.439775 398.341786
L 114.466138 434.889454
L 386.421565 192.449415
L 414.19077 167.70314
L 133.110818 418.042754
L 114.343162 434.751437
L 404.772806 176.325541
L 414.312746 167.84016
L 114.220312 434.613308
L 328.769771 244.042192
L 414.434596 167.977292
L 184.338592 372.164769
L 114.097589 434.475066
L 360.782726 215.771738
L 414.55632 168.114535
L 155.082448 397.939622
L 113.974993 434.336711
L 386.818105 192.896112
L 414.677918 168.25189
L 132.681357 417.558533
L 113.852524 434.198244
L 405.228381 176.839678
L 414.79939 168.389356
L 113.730182 434.059665
L 328.977404 244.277017
L 414.920736 168.526934
L 184.077114 371.868812
L 113.607967 433.920974
L 361.093869 216.12421
L 415.041955 168.664623
L 154.726598 397.53615
L 113.485879 433.782171
L 387.213004 193.344262
L 415.163049 168.802423
L 132.253677 417.072739
L 113.363919 433.643255
L 405.682066 177.355483
L 415.284016 168.940334
L 113.242086 433.504228
L 329.184175 244.512602
L 415.404856 169.078356
L 183.816723 371.571897
L 113.120381 433.36509
L 361.403716 216.47782
L 415.525569 169.216489
L 154.372232 397.131376
L 154.372232 397.131376
" clip-path="url(#p78c5b5fb3c)" style="fill: none; stroke: #467c9c; stroke-width: 1.5; stroke-linecap: square"/>
   </g>
   <g id="patch_3">
    <path d="M 44.854771 558.039057
L 44.854771 44.960173
" style="fill: none; stroke: #000000; stroke-width: 0.8; stroke-linejoin: miter; stroke-linecap: square"/>
   </g>
   <g id="patch_4">
    <path d="M 44.854771 558.039057
L 486.477507 558.039057
" style="fill: none; stroke: #000000; stroke-width: 0.8; stroke-linejoin: miter; stroke-linecap: square"/>
   </g>
   <g id="text_15">
    <text style="font-size: 11px; font-family: 'DejaVu Sans'; text-anchor: start; fill: #173944" x="44.854771" y="32.960173" transform="rotate(-0 44.854771 32.960173)">Le plan d’oscillation change de direction</text>
   </g>
   <g id="legend_1">
    <g id="patch_5">
     <path d="M 410.326257 84.686814
L 481.577507 84.686814
Q 482.977507 84.686814 482.977507 83.286814
L 482.977507 49.860173
Q 482.977507 48.460173 481.577507 48.460173
L 410.326257 48.460173
Q 408.926257 48.460173 408.926257 49.860173
L 408.926257 83.286814
Q 408.926257 84.686814 410.326257 84.686814
z
" style="fill: #fbfaf5; opacity: 0.8; stroke: #cccccc; stroke-linejoin: miter"/>
    </g>
    <g id="line2d_28">
     <path d="M 411.726257 54.409079
L 418.726257 54.409079
L 425.726257 54.409079
" style="fill: none; stroke: #17675e; stroke-width: 1.5; stroke-linecap: square"/>
    </g>
    <g id="text_16">
     <text style="font-size: 7px; font-family: 'DejaVu Sans'; text-anchor: start; fill: #173944" x="431.326257" y="56.859079" transform="rotate(-0 431.326257 56.859079)">Au début</text>
    </g>
    <g id="line2d_29">
     <path d="M 411.726257 66.082126
L 418.726257 66.082126
L 425.726257 66.082126
" style="fill: none; stroke: #bc8038; stroke-width: 1.5; stroke-linecap: square"/>
    </g>
    <g id="text_17">
     <text style="font-size: 7px; font-family: 'DejaVu Sans'; text-anchor: start; fill: #173944" x="431.326257" y="68.532126" transform="rotate(-0 431.326257 68.532126)">À mi-parcours</text>
    </g>
    <g id="line2d_30">
     <path d="M 411.726257 77.755173
L 418.726257 77.755173
L 425.726257 77.755173
" style="fill: none; stroke: #467c9c; stroke-width: 1.5; stroke-linecap: square"/>
    </g>
    <g id="text_18">
     <text style="font-size: 7px; font-family: 'DejaVu Sans'; text-anchor: start; fill: #173944" x="431.326257" y="80.205173" transform="rotate(-0 431.326257 80.205173)">À la fin</text>
    </g>
   </g>
  </g>
  <g id="axes_2">
   <g id="patch_6">
    <path d="M 541.206679 277.200156
L 961.79976 277.200156
L 961.79976 44.960173
L 541.206679 44.960173
z
" style="fill: #fbfaf5"/>
   </g>
   <g id="matplotlib.axis_3">
    <g id="xtick_6">
     <g id="line2d_31">
      <path d="M 598.560263 277.200156
L 598.560263 44.960173
" clip-path="url(#p9104e7d690)" style="fill: none; stroke: #b0b0b0; stroke-opacity: 0.2; stroke-width: 0.8; stroke-linecap: square"/>
     </g>
     <g id="line2d_32">
      <g>
       <use xlink:href="#m095e6037ff" x="598.560263" y="277.200156" style="stroke: #000000; stroke-width: 0.8"/>
      </g>
     </g>
     <g id="text_19">
      <text style="font-size: 9px; font-family: 'DejaVu Sans'; text-anchor: middle" x="598.560263" y="291.038047" transform="rotate(-0 598.560263 291.038047)">−0.4</text>
     </g>
    </g>
    <g id="xtick_7">
     <g id="line2d_33">
      <path d="M 675.031736 277.200156
L 675.031736 44.960173
" clip-path="url(#p9104e7d690)" style="fill: none; stroke: #b0b0b0; stroke-opacity: 0.2; stroke-width: 0.8; stroke-linecap: square"/>
     </g>
     <g id="line2d_34">
      <g>
       <use xlink:href="#m095e6037ff" x="675.031736" y="277.200156" style="stroke: #000000; stroke-width: 0.8"/>
      </g>
     </g>
     <g id="text_20">
      <text style="font-size: 9px; font-family: 'DejaVu Sans'; text-anchor: middle" x="675.031736" y="291.038047" transform="rotate(-0 675.031736 291.038047)">−0.2</text>
     </g>
    </g>
    <g id="xtick_8">
     <g id="line2d_35">
      <path d="M 751.503209 277.200156
L 751.503209 44.960173
" clip-path="url(#p9104e7d690)" style="fill: none; stroke: #b0b0b0; stroke-opacity: 0.2; stroke-width: 0.8; stroke-linecap: square"/>
     </g>
     <g id="line2d_36">
      <g>
       <use xlink:href="#m095e6037ff" x="751.503209" y="277.200156" style="stroke: #000000; stroke-width: 0.8"/>
      </g>
     </g>
     <g id="text_21">
      <text style="font-size: 9px; font-family: 'DejaVu Sans'; text-anchor: middle" x="751.503209" y="291.038047" transform="rotate(-0 751.503209 291.038047)">0.0</text>
     </g>
    </g>
    <g id="xtick_9">
     <g id="line2d_37">
      <path d="M 827.974683 277.200156
L 827.974683 44.960173
" clip-path="url(#p9104e7d690)" style="fill: none; stroke: #b0b0b0; stroke-opacity: 0.2; stroke-width: 0.8; stroke-linecap: square"/>
     </g>
     <g id="line2d_38">
      <g>
       <use xlink:href="#m095e6037ff" x="827.974683" y="277.200156" style="stroke: #000000; stroke-width: 0.8"/>
      </g>
     </g>
     <g id="text_22">
      <text style="font-size: 9px; font-family: 'DejaVu Sans'; text-anchor: middle" x="827.974683" y="291.038047" transform="rotate(-0 827.974683 291.038047)">0.2</text>
     </g>
    </g>
    <g id="xtick_10">
     <g id="line2d_39">
      <path d="M 904.446156 277.200156
L 904.446156 44.960173
" clip-path="url(#p9104e7d690)" style="fill: none; stroke: #b0b0b0; stroke-opacity: 0.2; stroke-width: 0.8; stroke-linecap: square"/>
     </g>
     <g id="line2d_40">
      <g>
       <use xlink:href="#m095e6037ff" x="904.446156" y="277.200156" style="stroke: #000000; stroke-width: 0.8"/>
      </g>
     </g>
     <g id="text_23">
      <text style="font-size: 9px; font-family: 'DejaVu Sans'; text-anchor: middle" x="904.446156" y="291.038047" transform="rotate(-0 904.446156 291.038047)">0.4</text>
     </g>
    </g>
    <g id="text_24">
     <text style="font-size: 9px; font-family: 'DejaVu Sans'; text-anchor: middle; fill: #173944" x="751.503219" y="304.038047" transform="rotate(-0 751.503219 304.038047)">x (m)</text>
    </g>
   </g>
   <g id="matplotlib.axis_4">
    <g id="ytick_8">
     <g id="line2d_41">
      <path d="M 541.206679 251.099101
L 961.79976 251.099101
" clip-path="url(#p9104e7d690)" style="fill: none; stroke: #b0b0b0; stroke-opacity: 0.2; stroke-width: 0.8; stroke-linecap: square"/>
     </g>
     <g id="line2d_42">
      <g>
       <use xlink:href="#med83fb7d65" x="541.206679" y="251.099101" style="stroke: #000000; stroke-width: 0.8"/>
      </g>
     </g>
     <g id="text_25">
      <text style="font-size: 9px; font-family: 'DejaVu Sans'; text-anchor: end" x="534.206679" y="254.518046" transform="rotate(-0 534.206679 254.518046)">−0.4</text>
     </g>
    </g>
    <g id="ytick_9">
     <g id="line2d_43">
      <path d="M 541.206679 206.085162
L 961.79976 206.085162
" clip-path="url(#p9104e7d690)" style="fill: none; stroke: #b0b0b0; stroke-opacity: 0.2; stroke-width: 0.8; stroke-linecap: square"/>
     </g>
     <g id="line2d_44">
      <g>
       <use xlink:href="#med83fb7d65" x="541.206679" y="206.085162" style="stroke: #000000; stroke-width: 0.8"/>
      </g>
     </g>
     <g id="text_26">
      <text style="font-size: 9px; font-family: 'DejaVu Sans'; text-anchor: end" x="534.206679" y="209.504107" transform="rotate(-0 534.206679 209.504107)">−0.2</text>
     </g>
    </g>
    <g id="ytick_10">
     <g id="line2d_45">
      <path d="M 541.206679 161.071223
L 961.79976 161.071223
" clip-path="url(#p9104e7d690)" style="fill: none; stroke: #b0b0b0; stroke-opacity: 0.2; stroke-width: 0.8; stroke-linecap: square"/>
     </g>
     <g id="line2d_46">
      <g>
       <use xlink:href="#med83fb7d65" x="541.206679" y="161.071223" style="stroke: #000000; stroke-width: 0.8"/>
      </g>
     </g>
     <g id="text_27">
      <text style="font-size: 9px; font-family: 'DejaVu Sans'; text-anchor: end" x="534.206679" y="164.490169" transform="rotate(-0 534.206679 164.490169)">0.0</text>
     </g>
    </g>
    <g id="ytick_11">
     <g id="line2d_47">
      <path d="M 541.206679 116.057285
L 961.79976 116.057285
" clip-path="url(#p9104e7d690)" style="fill: none; stroke: #b0b0b0; stroke-opacity: 0.2; stroke-width: 0.8; stroke-linecap: square"/>
     </g>
     <g id="line2d_48">
      <g>
       <use xlink:href="#med83fb7d65" x="541.206679" y="116.057285" style="stroke: #000000; stroke-width: 0.8"/>
      </g>
     </g>
     <g id="text_28">
      <text style="font-size: 9px; font-family: 'DejaVu Sans'; text-anchor: end" x="534.206679" y="119.47623" transform="rotate(-0 534.206679 119.47623)">0.2</text>
     </g>
    </g>
    <g id="ytick_12">
     <g id="line2d_49">
      <path d="M 541.206679 71.043346
L 961.79976 71.043346
" clip-path="url(#p9104e7d690)" style="fill: none; stroke: #b0b0b0; stroke-opacity: 0.2; stroke-width: 0.8; stroke-linecap: square"/>
     </g>
     <g id="line2d_50">
      <g>
       <use xlink:href="#med83fb7d65" x="541.206679" y="71.043346" style="stroke: #000000; stroke-width: 0.8"/>
      </g>
     </g>
     <g id="text_29">
      <text style="font-size: 9px; font-family: 'DejaVu Sans'; text-anchor: end" x="534.206679" y="74.462291" transform="rotate(-0 534.206679 74.462291)">0.4</text>
     </g>
    </g>
    <g id="text_30">
     <text style="font-size: 9px; font-family: 'DejaVu Sans'; text-anchor: middle; fill: #173944" x="506.190038" y="161.080165" transform="rotate(-90 506.190038 161.080165)">y (m)</text>
    </g>
   </g>
   <g id="line2d_51">
    <path d="M 942.681893 161.071223
L 560.324546 161.019612
L 620.632524 160.962442
L 560.324707 160.916388
L 942.681571 161.277669
L 853.941461 161.242174
L 942.681169 161.380892
L 560.325511 160.709943
L 649.065454 160.817309
L 560.326154 160.60672
L 942.679882 161.587337
L 853.940274 161.408101
L 942.678997 161.690559
L 560.327924 160.400276
L 649.067028 160.651382
L 560.32905 160.297055
L 942.676745 161.897001
L 853.938312 161.574027
L 942.675378 162.000221
L 560.331784 160.090615
L 649.069379 160.485459
L 560.333393 159.987396
L 942.672161 162.206659
L 853.935573 161.739948
L 942.670312 162.309877
L 942.670312 162.309877
" clip-path="url(#p9104e7d690)" style="fill: none; stroke: #17675e; stroke-width: 1.65; stroke-linecap: square"/>
   </g>
   <g id="line2d_52">
    <path d="M 688.222198 63.339666
L 683.414539 55.915571
L 819.509942 266.245246
L 705.060851 89.139934
L 683.578429 55.878852
L 814.555723 258.853939
L 819.346024 266.28192
L 683.742375 55.842222
L 797.777391 233.040058
L 819.182049 266.318507
L 688.679313 63.237534
L 683.906379 55.80568
L 819.018016 266.355004
L 705.397292 89.064979
L 684.07044 55.769227
L 814.098369 258.9557
L 818.853927 266.391413
L 684.234557 55.732862
L 797.440775 233.11474
L 818.689782 266.427734
L 689.136905 63.136143
L 684.398731 55.696586
L 818.52558 266.463965
L 705.734081 88.99057
L 684.562961 55.660398
L 813.640541 259.056721
L 818.361321 266.500108
L 684.727248 55.6243
L 797.103812 233.188876
L 818.197006 266.536163
L 689.594968 63.035494
L 684.891591 55.58829
L 818.032635 266.572128
L 706.071218 88.916707
L 685.055989 55.552368
L 813.182243 259.156999
L 817.868209 266.608005
L 685.220444 55.516536
L 796.766504 233.262467
L 817.703726 266.643793
L 690.0535 62.935586
L 690.0535 62.935586
" clip-path="url(#p9104e7d690)" style="fill: none; stroke: #bc8038; stroke-width: 1.65; stroke-linecap: square"/>
   </g>
   <g id="line2d_53">
    <path d="M 647.69337 215.565849
L 608.824711 235.973935
L 894.240052 86.207037
L 622.422784 228.709633
L 608.708052 235.896867
L 894.356651 86.284137
L 622.31744 228.63991
L 608.591514 235.819736
L 894.473129 86.361299
L 622.212204 228.57013
L 608.475095 235.742543
L 894.589487 86.438524
L 622.107077 228.500294
L 608.358797 235.665286
L 894.705725 86.515812
L 622.002058 228.430401
L 608.24262 235.587967
L 894.821842 86.593163
L 621.897149 228.360451
L 608.126563 235.510584
L 894.937839 86.670576
L 621.792349 228.290444
L 608.010627 235.43314
L 895.053715 86.748053
L 621.687658 228.220381
L 607.894811 235.355632
L 895.16947 86.825591
L 621.583076 228.150261
L 607.779116 235.278063
L 895.285104 86.903192
L 621.478603 228.080085
L 607.663543 235.20043
L 895.400617 86.980855
L 621.37424 228.009853
L 607.54809 235.122736
L 895.51601 87.058581
L 646.68067 214.889961
" clip-path="url(#p9104e7d690)" style="fill: none; stroke: #467c9c; stroke-width: 1.65; stroke-linecap: square"/>
   </g>
   <g id="patch_7">
    <path d="M 541.206679 277.200156
L 541.206679 44.960173
" style="fill: none; stroke: #000000; stroke-width: 0.8; stroke-linejoin: miter; stroke-linecap: square"/>
   </g>
   <g id="patch_8">
    <path d="M 541.206679 277.200156
L 961.79976 277.200156
" style="fill: none; stroke: #000000; stroke-width: 0.8; stroke-linejoin: miter; stroke-linecap: square"/>
   </g>
   <g id="text_31">
    <text style="font-size: 10px; font-family: 'DejaVu Sans'; text-anchor: start; fill: #173944" x="541.206679" y="38.960173" transform="rotate(-0 541.206679 38.960173)">Trois courts enregistrements dans le plan horizontal</text>
   </g>
   <g id="legend_2">
    <g id="patch_9">
     <path d="M 885.64851 84.686814
L 956.89976 84.686814
Q 958.29976 84.686814 958.29976 83.286814
L 958.29976 49.860173
Q 958.29976 48.460173 956.89976 48.460173
L 885.64851 48.460173
Q 884.24851 48.460173 884.24851 49.860173
L 884.24851 83.286814
Q 884.24851 84.686814 885.64851 84.686814
z
" style="fill: #fbfaf5; opacity: 0.8; stroke: #cccccc; stroke-linejoin: miter"/>
    </g>
    <g id="line2d_54">
     <path d="M 887.04851 54.409079
L 894.04851 54.409079
L 901.04851 54.409079
" style="fill: none; stroke: #17675e; stroke-width: 1.65; stroke-linecap: square"/>
    </g>
    <g id="text_32">
     <text style="font-size: 7px; font-family: 'DejaVu Sans'; text-anchor: start; fill: #173944" x="906.64851" y="56.859079" transform="rotate(-0 906.64851 56.859079)">Au début</text>
    </g>
    <g id="line2d_55">
     <path d="M 887.04851 66.082126
L 894.04851 66.082126
L 901.04851 66.082126
" style="fill: none; stroke: #bc8038; stroke-width: 1.65; stroke-linecap: square"/>
    </g>
    <g id="text_33">
     <text style="font-size: 7px; font-family: 'DejaVu Sans'; text-anchor: start; fill: #173944" x="906.64851" y="68.532126" transform="rotate(-0 906.64851 68.532126)">À mi-parcours</text>
    </g>
    <g id="line2d_56">
     <path d="M 887.04851 77.755173
L 894.04851 77.755173
L 901.04851 77.755173
" style="fill: none; stroke: #467c9c; stroke-width: 1.65; stroke-linecap: square"/>
    </g>
    <g id="text_34">
     <text style="font-size: 7px; font-family: 'DejaVu Sans'; text-anchor: start; fill: #173944" x="906.64851" y="80.205173" transform="rotate(-0 906.64851 80.205173)">À la fin</text>
    </g>
   </g>
  </g>
  <g id="axes_3">
   <g id="patch_10">
    <path d="M 541.206679 558.039057
L 961.79976 558.039057
L 961.79976 325.799074
L 541.206679 325.799074
z
" style="fill: #fbfaf5"/>
   </g>
   <g id="matplotlib.axis_5">
    <g id="xtick_11">
     <g id="line2d_57">
      <path d="M 560.324546 558.039057
L 560.324546 325.799074
" clip-path="url(#p97e44e1d29)" style="fill: none; stroke: #b0b0b0; stroke-opacity: 0.2; stroke-width: 0.8; stroke-linecap: square"/>
     </g>
     <g id="line2d_58">
      <g>
       <use xlink:href="#m095e6037ff" x="560.324546" y="558.039057" style="stroke: #000000; stroke-width: 0.8"/>
      </g>
     </g>
     <g id="text_35">
      <text style="font-size: 9px; font-family: 'DejaVu Sans'; text-anchor: middle" x="560.324546" y="571.876948" transform="rotate(-0 560.324546 571.876948)">0</text>
     </g>
    </g>
    <g id="xtick_12">
     <g id="line2d_59">
      <path d="M 624.05077 558.039057
L 624.05077 325.799074
" clip-path="url(#p97e44e1d29)" style="fill: none; stroke: #b0b0b0; stroke-opacity: 0.2; stroke-width: 0.8; stroke-linecap: square"/>
     </g>
     <g id="line2d_60">
      <g>
       <use xlink:href="#m095e6037ff" x="624.05077" y="558.039057" style="stroke: #000000; stroke-width: 0.8"/>
      </g>
     </g>
     <g id="text_36">
      <text style="font-size: 9px; font-family: 'DejaVu Sans'; text-anchor: middle" x="624.05077" y="571.876948" transform="rotate(-0 624.05077 571.876948)">2</text>
     </g>
    </g>
    <g id="xtick_13">
     <g id="line2d_61">
      <path d="M 687.776995 558.039057
L 687.776995 325.799074
" clip-path="url(#p97e44e1d29)" style="fill: none; stroke: #b0b0b0; stroke-opacity: 0.2; stroke-width: 0.8; stroke-linecap: square"/>
     </g>
     <g id="line2d_62">
      <g>
       <use xlink:href="#m095e6037ff" x="687.776995" y="558.039057" style="stroke: #000000; stroke-width: 0.8"/>
      </g>
     </g>
     <g id="text_37">
      <text style="font-size: 9px; font-family: 'DejaVu Sans'; text-anchor: middle" x="687.776995" y="571.876948" transform="rotate(-0 687.776995 571.876948)">4</text>
     </g>
    </g>
    <g id="xtick_14">
     <g id="line2d_63">
      <path d="M 751.503219 558.039057
L 751.503219 325.799074
" clip-path="url(#p97e44e1d29)" style="fill: none; stroke: #b0b0b0; stroke-opacity: 0.2; stroke-width: 0.8; stroke-linecap: square"/>
     </g>
     <g id="line2d_64">
      <g>
       <use xlink:href="#m095e6037ff" x="751.503219" y="558.039057" style="stroke: #000000; stroke-width: 0.8"/>
      </g>
     </g>
     <g id="text_38">
      <text style="font-size: 9px; font-family: 'DejaVu Sans'; text-anchor: middle" x="751.503219" y="571.876948" transform="rotate(-0 751.503219 571.876948)">6</text>
     </g>
    </g>
    <g id="xtick_15">
     <g id="line2d_65">
      <path d="M 815.229444 558.039057
L 815.229444 325.799074
" clip-path="url(#p97e44e1d29)" style="fill: none; stroke: #b0b0b0; stroke-opacity: 0.2; stroke-width: 0.8; stroke-linecap: square"/>
     </g>
     <g id="line2d_66">
      <g>
       <use xlink:href="#m095e6037ff" x="815.229444" y="558.039057" style="stroke: #000000; stroke-width: 0.8"/>
      </g>
     </g>
     <g id="text_39">
      <text style="font-size: 9px; font-family: 'DejaVu Sans'; text-anchor: middle" x="815.229444" y="571.876948" transform="rotate(-0 815.229444 571.876948)">8</text>
     </g>
    </g>
    <g id="xtick_16">
     <g id="line2d_67">
      <path d="M 878.955668 558.039057
L 878.955668 325.799074
" clip-path="url(#p97e44e1d29)" style="fill: none; stroke: #b0b0b0; stroke-opacity: 0.2; stroke-width: 0.8; stroke-linecap: square"/>
     </g>
     <g id="line2d_68">
      <g>
       <use xlink:href="#m095e6037ff" x="878.955668" y="558.039057" style="stroke: #000000; stroke-width: 0.8"/>
      </g>
     </g>
     <g id="text_40">
      <text style="font-size: 9px; font-family: 'DejaVu Sans'; text-anchor: middle" x="878.955668" y="571.876948" transform="rotate(-0 878.955668 571.876948)">10</text>
     </g>
    </g>
    <g id="xtick_17">
     <g id="line2d_69">
      <path d="M 942.681893 558.039057
L 942.681893 325.799074
" clip-path="url(#p97e44e1d29)" style="fill: none; stroke: #b0b0b0; stroke-opacity: 0.2; stroke-width: 0.8; stroke-linecap: square"/>
     </g>
     <g id="line2d_70">
      <g>
       <use xlink:href="#m095e6037ff" x="942.681893" y="558.039057" style="stroke: #000000; stroke-width: 0.8"/>
      </g>
     </g>
     <g id="text_41">
      <text style="font-size: 9px; font-family: 'DejaVu Sans'; text-anchor: middle" x="942.681893" y="571.876948" transform="rotate(-0 942.681893 571.876948)">12</text>
     </g>
    </g>
    <g id="text_42">
     <text style="font-size: 9px; font-family: 'DejaVu Sans'; text-anchor: middle; fill: #173944" x="751.503219" y="585.237651" transform="rotate(-0 751.503219 585.237651)">Temps depuis le début (h)</text>
    </g>
   </g>
   <g id="matplotlib.axis_6">
    <g id="ytick_13">
     <g id="line2d_71">
      <path d="M 541.206679 550.131185
L 961.79976 550.131185
" clip-path="url(#p97e44e1d29)" style="fill: none; stroke: #b0b0b0; stroke-opacity: 0.2; stroke-width: 0.8; stroke-linecap: square"/>
     </g>
     <g id="line2d_72">
      <g>
       <use xlink:href="#med83fb7d65" x="541.206679" y="550.131185" style="stroke: #000000; stroke-width: 0.8"/>
      </g>
     </g>
     <g id="text_43">
      <text style="font-size: 9px; font-family: 'DejaVu Sans'; text-anchor: end" x="534.206679" y="553.55013" transform="rotate(-0 534.206679 553.55013)">−140</text>
     </g>
    </g>
    <g id="ytick_14">
     <g id="line2d_73">
      <path d="M 541.206679 519.591793
L 961.79976 519.591793
" clip-path="url(#p97e44e1d29)" style="fill: none; stroke: #b0b0b0; stroke-opacity: 0.2; stroke-width: 0.8; stroke-linecap: square"/>
     </g>
     <g id="line2d_74">
      <g>
       <use xlink:href="#med83fb7d65" x="541.206679" y="519.591793" style="stroke: #000000; stroke-width: 0.8"/>
      </g>
     </g>
     <g id="text_44">
      <text style="font-size: 9px; font-family: 'DejaVu Sans'; text-anchor: end" x="534.206679" y="523.010738" transform="rotate(-0 534.206679 523.010738)">−120</text>
     </g>
    </g>
    <g id="ytick_15">
     <g id="line2d_75">
      <path d="M 541.206679 489.0524
L 961.79976 489.0524
" clip-path="url(#p97e44e1d29)" style="fill: none; stroke: #b0b0b0; stroke-opacity: 0.2; stroke-width: 0.8; stroke-linecap: square"/>
     </g>
     <g id="line2d_76">
      <g>
       <use xlink:href="#med83fb7d65" x="541.206679" y="489.0524" style="stroke: #000000; stroke-width: 0.8"/>
      </g>
     </g>
     <g id="text_45">
      <text style="font-size: 9px; font-family: 'DejaVu Sans'; text-anchor: end" x="534.206679" y="492.471345" transform="rotate(-0 534.206679 492.471345)">−100</text>
     </g>
    </g>
    <g id="ytick_16">
     <g id="line2d_77">
      <path d="M 541.206679 458.513007
L 961.79976 458.513007
" clip-path="url(#p97e44e1d29)" style="fill: none; stroke: #b0b0b0; stroke-opacity: 0.2; stroke-width: 0.8; stroke-linecap: square"/>
     </g>
     <g id="line2d_78">
      <g>
       <use xlink:href="#med83fb7d65" x="541.206679" y="458.513007" style="stroke: #000000; stroke-width: 0.8"/>
      </g>
     </g>
     <g id="text_46">
      <text style="font-size: 9px; font-family: 'DejaVu Sans'; text-anchor: end" x="534.206679" y="461.931953" transform="rotate(-0 534.206679 461.931953)">−80</text>
     </g>
    </g>
    <g id="ytick_17">
     <g id="line2d_79">
      <path d="M 541.206679 427.973615
L 961.79976 427.973615
" clip-path="url(#p97e44e1d29)" style="fill: none; stroke: #b0b0b0; stroke-opacity: 0.2; stroke-width: 0.8; stroke-linecap: square"/>
     </g>
     <g id="line2d_80">
      <g>
       <use xlink:href="#med83fb7d65" x="541.206679" y="427.973615" style="stroke: #000000; stroke-width: 0.8"/>
      </g>
     </g>
     <g id="text_47">
      <text style="font-size: 9px; font-family: 'DejaVu Sans'; text-anchor: end" x="534.206679" y="431.39256" transform="rotate(-0 534.206679 431.39256)">−60</text>
     </g>
    </g>
    <g id="ytick_18">
     <g id="line2d_81">
      <path d="M 541.206679 397.434222
L 961.79976 397.434222
" clip-path="url(#p97e44e1d29)" style="fill: none; stroke: #b0b0b0; stroke-opacity: 0.2; stroke-width: 0.8; stroke-linecap: square"/>
     </g>
     <g id="line2d_82">
      <g>
       <use xlink:href="#med83fb7d65" x="541.206679" y="397.434222" style="stroke: #000000; stroke-width: 0.8"/>
      </g>
     </g>
     <g id="text_48">
      <text style="font-size: 9px; font-family: 'DejaVu Sans'; text-anchor: end" x="534.206679" y="400.853167" transform="rotate(-0 534.206679 400.853167)">−40</text>
     </g>
    </g>
    <g id="ytick_19">
     <g id="line2d_83">
      <path d="M 541.206679 366.894829
L 961.79976 366.894829
" clip-path="url(#p97e44e1d29)" style="fill: none; stroke: #b0b0b0; stroke-opacity: 0.2; stroke-width: 0.8; stroke-linecap: square"/>
     </g>
     <g id="line2d_84">
      <g>
       <use xlink:href="#med83fb7d65" x="541.206679" y="366.894829" style="stroke: #000000; stroke-width: 0.8"/>
      </g>
     </g>
     <g id="text_49">
      <text style="font-size: 9px; font-family: 'DejaVu Sans'; text-anchor: end" x="534.206679" y="370.313775" transform="rotate(-0 534.206679 370.313775)">−20</text>
     </g>
    </g>
    <g id="ytick_20">
     <g id="line2d_85">
      <path d="M 541.206679 336.355437
L 961.79976 336.355437
" clip-path="url(#p97e44e1d29)" style="fill: none; stroke: #b0b0b0; stroke-opacity: 0.2; stroke-width: 0.8; stroke-linecap: square"/>
     </g>
     <g id="line2d_86">
      <g>
       <use xlink:href="#med83fb7d65" x="541.206679" y="336.355437" style="stroke: #000000; stroke-width: 0.8"/>
      </g>
     </g>
     <g id="text_50">
      <text style="font-size: 9px; font-family: 'DejaVu Sans'; text-anchor: end" x="534.206679" y="339.774382" transform="rotate(-0 534.206679 339.774382)">0</text>
     </g>
    </g>
    <g id="text_51">
     <text style="font-size: 9px; font-family: 'DejaVu Sans'; text-anchor: middle; fill: #173944" x="503.3241" y="441.919065" transform="rotate(-90 503.3241 441.919065)">Angle orienté (°)</text>
    </g>
   </g>
   <g id="line2d_87">
    <path d="M 560.324546 336.355437
L 942.681893 547.482694
L 942.681893 547.482694
" clip-path="url(#p97e44e1d29)" style="fill: none; stroke: #17675e; stroke-width: 1.65; stroke-linecap: square"/>
   </g>
   <g id="patch_11">
    <path d="M 541.206679 558.039057
L 541.206679 325.799074
" style="fill: none; stroke: #000000; stroke-width: 0.8; stroke-linejoin: miter; stroke-linecap: square"/>
   </g>
   <g id="patch_12">
    <path d="M 541.206679 558.039057
L 961.79976 558.039057
" style="fill: none; stroke: #000000; stroke-width: 0.8; stroke-linejoin: miter; stroke-linecap: square"/>
   </g>
   <g id="text_52">
    <text style="font-size: 10px; font-family: 'DejaVu Sans'; text-anchor: start; fill: #173944" x="541.206679" y="319.799074" transform="rotate(-0 541.206679 319.799074)">Rotation lente de la direction de l’oscillation</text>
   </g>
   <g id="legend_3">
    <g id="patch_13">
     <path d="M 834.210541 342.179621
L 956.89976 342.179621
Q 958.29976 342.179621 958.29976 340.779621
L 958.29976 330.699074
Q 958.29976 329.299074 956.89976 329.299074
L 834.210541 329.299074
Q 832.810541 329.299074 832.810541 330.699074
L 832.810541 340.779621
Q 832.810541 342.179621 834.210541 342.179621
z
" style="fill: #fbfaf5; opacity: 0.8; stroke: #cccccc; stroke-linejoin: miter"/>
    </g>
    <g id="line2d_88">
     <path d="M 835.610541 335.24798
L 842.610541 335.24798
L 849.610541 335.24798
" style="fill: none; stroke: #17675e; stroke-width: 1.65; stroke-linecap: square"/>
    </g>
    <g id="text_53">
     <text style="font-size: 7px; font-family: 'DejaVu Sans'; text-anchor: start; fill: #173944" x="855.210541" y="337.69798" transform="rotate(-0 855.210541 337.69798)">Direction repérée en continu</text>
    </g>
   </g>
  </g>
  <g id="text_54">
   <text style="font-weight: 700; font-size: 15px; font-family: 'DejaVu Sans'; text-anchor: middle; fill: #173944" x="482.4" y="14.997896" transform="rotate(-0 482.4 14.997896)">11 · Foucault : oscillation rapide, précession lente</text>
  </g>
 </g>
 <defs>
  <clipPath id="p78c5b5fb3c">
   <rect x="44.854771" y="44.960173" width="441.622735" height="513.078884"/>
  </clipPath>
  <clipPath id="p9104e7d690">
   <rect x="541.206679" y="44.960173" width="420.593081" height="232.239983"/>
  </clipPath>
  <clipPath id="p97e44e1d29">
   <rect x="541.206679" y="325.799074" width="420.593081" height="232.239983"/>
  </clipPath>
 </defs>
</svg>
