<?xml version="1.0" encoding="utf-8" standalone="no"?>
<!DOCTYPE svg PUBLIC "-//W3C//DTD SVG 1.1//EN"
  "http://www.w3.org/Graphics/SVG/1.1/DTD/svg11.dtd">
<svg xmlns:xlink="http://www.w3.org/1999/xlink" width="828pt" height="374.4pt" viewBox="0 0 828 374.4" xmlns="http://www.w3.org/2000/svg" version="1.1">
 <metadata>
  <rdf:RDF xmlns:dc="http://purl.org/dc/elements/1.1/" xmlns:cc="http://creativecommons.org/ns#" xmlns:rdf="http://www.w3.org/1999/02/22-rdf-syntax-ns#">
   <cc:Work>
    <dc:type rdf:resource="http://purl.org/dc/dcmitype/StillImage"/>
    <dc:date>2026-10-08T16:28:53.976515</dc:date>
    <dc:format>image/svg+xml</dc:format>
    <dc:creator>
     <cc:Agent>
      <dc:title>Matplotlib v3.11.2, https://matplotlib.org/</dc:title>
     </cc:Agent>
    </dc:creator>
   </cc:Work>
  </rdf:RDF>
 </metadata>
 <defs>
  <style type="text/css">*{stroke-linejoin: round; stroke-linecap: butt}</style>
 </defs>
 <g id="figure_1">
  <g id="patch_1">
   <path d="M 0 374.4
L 828 374.4
L 828 0
L 0 0
z
" style="fill: #f8f7f1"/>
  </g>
  <g id="axes_1">
   <g id="patch_2">
    <path d="M 62.1 286.399627
L 382.905195 286.399627
L 382.905195 84.256373
L 62.1 84.256373
z
" style="fill: #ffffff"/>
   </g>
   <g id="patch_3">
    <path d="M 356.171429 153.743117
L 356.166083 153.130585
L 356.150039 152.517928
L 356.123278 151.905023
L 356.085767 151.291745
L 356.03746 150.677971
L 355.978298 150.063577
L 355.908209 149.448441
L 355.827107 148.83244
L 355.734894 148.215452
L 355.631456 147.597358
L 355.516667 146.978039
L 355.390386 146.357375
L 355.252458 145.735249
L 355.102714 145.111548
L 354.94097 144.486157
L 354.767026 143.858964
L 354.580669 143.229861
L 354.381669 142.59874
L 354.169779 141.965496
L 353.944738 141.33003
L 353.706269 140.692243
L 353.454075 140.052041
L 353.187844 139.409333
L 352.907248 138.764035
L 352.611937 138.116066
L 352.301547 137.46535
L 351.975693 136.811819
L 351.633971 136.155409
L 351.27596 135.496066
L 350.901216 134.833742
L 350.509279 134.168397
L 350.099666 133.500003
L 349.671875 132.82854
L 349.225384 132.153999
L 348.759648 131.476384
L 348.274104 130.795712
L 347.768168 130.112014
L 347.241233 129.425336
L 346.692676 128.735742
L 346.121849 128.043312
L 345.528088 127.348145
L 344.910709 126.650364
L 344.269008 125.95011
L 343.602267 125.247552
L 342.909749 124.542882
L 342.190703 123.836319
L 341.444365 123.128113
L 340.669959 122.418543
L 339.8667 121.707923
L 339.033796 120.996601
L 338.170452 120.28496
L 337.275872 119.573424
L 336.349261 118.862457
L 335.389833 118.152564
L 334.396812 117.444297
L 333.369439 116.738251
L 332.306976 116.035071
L 331.208713 115.335449
L 330.073973 114.640129
L 328.90212 113.949904
L 327.692565 113.265621
L 326.444776 112.588177
L 325.158285 111.918522
L 323.832693 111.257657
L 322.467685 110.606632
L 321.063036 109.966547
L 319.618619 109.338546
L 318.134418 108.723819
L 316.610532 108.123594
L 315.047189 107.539132
L 313.444753 106.971727
L 311.803729 106.422694
L 310.124777 105.893368
L 308.408712 105.38509
L 306.656515 104.899206
L 304.869332 104.43705
L 303.048483 103.999941
L 301.195458 103.589172
L 299.311917 103.205997
L 297.399694 102.851619
L 295.460784 102.527187
L 293.497343 102.233776
L 291.511676 101.972382
L 289.506228 101.743912
L 287.483572 101.54917
L 285.446395 101.388856
L 283.397479 101.263551
L 281.339689 101.173715
L 279.275948 101.119679
L 277.20922 101.101644
L 275.142493 101.119679
L 273.078751 101.173715
L 271.020961 101.263551
L 268.972045 101.388856
L 266.934868 101.54917
L 264.912213 101.743912
L 262.906765 101.972382
L 260.921097 102.233776
L 258.957656 102.527187
L 257.018746 102.851619
L 255.106523 103.205997
L 253.222983 103.589172
L 251.369957 103.999941
L 249.549108 104.43705
L 247.761925 104.899206
L 246.009728 105.38509
L 244.293664 105.893368
L 242.614711 106.422694
L 240.973688 106.971727
L 239.371251 107.539132
L 237.807908 108.123594
L 236.284022 108.723819
L 234.799821 109.338546
L 233.355404 109.966547
L 231.950755 110.606632
L 230.585748 111.257657
L 229.260156 111.918522
L 227.973664 112.588177
L 226.725875 113.265621
L 225.516321 113.949904
L 116.103075 177.119671
L 225.516321 113.949904
L 116.103075 177.119671
L 114.931222 177.809895
L 113.796482 178.505215
L 112.698219 179.204837
L 111.635756 179.908018
L 110.608383 180.614063
L 109.615362 181.322331
L 108.655934 182.032224
L 107.729323 182.743191
L 106.834743 183.454727
L 105.971399 184.166368
L 105.138495 184.87769
L 104.335236 185.58831
L 103.56083 186.297879
L 102.814492 187.006085
L 102.095446 187.712648
L 101.402928 188.417319
L 100.736187 189.119877
L 100.094486 189.820131
L 99.477107 190.517912
L 98.883346 191.213078
L 98.312519 191.905509
L 97.763961 192.595103
L 97.237027 193.281781
L 96.731091 193.965479
L 96.245547 194.646151
L 95.779811 195.323765
L 95.333319 195.998306
L 94.905529 196.66977
L 94.495916 197.338164
L 94.103978 198.003508
L 93.729235 198.665833
L 93.371224 199.325176
L 93.029502 199.981585
L 92.703648 200.635117
L 92.393258 201.285833
L 92.097947 201.933802
L 91.81735 202.5791
L 91.55112 203.221807
L 91.298926 203.86201
L 91.060456 204.499797
L 90.835416 205.135263
L 90.623526 205.768506
L 90.424526 206.399627
L 90.238168 207.028731
L 90.064225 207.655924
L 89.902481 208.281315
L 89.752737 208.905016
L 89.614809 209.527141
L 89.488528 210.147805
L 89.373739 210.767125
L 89.270301 211.385219
L 89.178088 212.002206
L 89.096986 212.618207
L 89.026897 213.233344
L 88.967735 213.847738
L 88.919428 214.461512
L 88.881917 215.07479
L 88.855156 215.687695
L 88.839112 216.300351
L 88.833766 216.912883
L 88.839112 217.525415
L 88.855156 218.138072
L 88.881917 218.750977
L 88.919428 219.364255
L 88.967735 219.978029
L 89.026897 220.592423
L 89.096986 221.207559
L 89.178088 221.82356
L 89.270301 222.440548
L 89.373739 223.058642
L 89.488528 223.677961
L 89.614809 224.298625
L 89.752737 224.920751
L 89.902481 225.544452
L 90.064225 226.169843
L 90.238168 226.797036
L 90.424526 227.426139
L 90.623526 228.05726
L 90.835416 228.690504
L 91.060456 229.32597
L 91.298926 229.963757
L 91.55112 230.603959
L 91.81735 231.246667
L 92.097947 231.891965
L 92.393258 232.539934
L 92.703648 233.19065
L 93.029502 233.844181
L 93.371224 234.500591
L 93.729235 235.159934
L 94.103978 235.822258
L 94.495916 236.487603
L 94.905529 237.155997
L 95.333319 237.82746
L 95.779811 238.502001
L 96.245547 239.179616
L 96.731091 239.860288
L 97.237027 240.543986
L 97.763961 241.230664
L 98.312519 241.920258
L 98.883346 242.612688
L 99.477107 243.307855
L 100.094486 244.005636
L 100.736187 244.70589
L 101.402928 245.408448
L 102.095446 246.113118
L 102.814492 246.819681
L 103.56083 247.527887
L 104.335236 248.237457
L 105.138495 248.948077
L 105.971399 249.659399
L 106.834743 250.37104
L 107.729323 251.082576
L 108.655934 251.793543
L 109.615362 252.503436
L 110.608383 253.211703
L 111.635756 253.917749
L 112.698219 254.620929
L 113.796482 255.320551
L 114.931222 256.015871
L 116.103075 256.706096
L 117.31263 257.390379
L 118.560418 258.067823
L 119.84691 258.737478
L 121.172502 259.398343
L 122.53751 260.049368
L 123.942159 260.689453
L 125.386575 261.317454
L 126.870777 261.932181
L 128.394663 262.532406
L 129.958006 263.116868
L 131.560442 263.684273
L 133.201466 264.233306
L 134.880418 264.762632
L 136.596483 265.27091
L 138.34868 265.756794
L 140.135862 266.21895
L 141.956712 266.656059
L 143.809737 267.066828
L 145.693277 267.450003
L 147.605501 267.804381
L 149.54441 268.128813
L 151.507852 268.422224
L 153.493519 268.683618
L 155.498967 268.912088
L 157.521623 269.10683
L 159.5588 269.267144
L 161.607715 269.392449
L 163.665506 269.482285
L 165.729247 269.536321
L 167.795975 269.554356
L 169.862702 269.536321
L 171.926444 269.482285
L 173.984234 269.392449
L 176.033149 269.267144
L 178.070327 269.10683
L 180.092982 268.912088
L 182.09843 268.683618
L 184.084098 268.422224
L 186.047539 268.128813
L 187.986449 267.804381
L 189.898672 267.450003
L 191.782212 267.066828
L 193.635238 266.656059
L 195.456087 266.21895
L 197.243269 265.756794
L 198.995467 265.27091
L 200.711531 264.762632
L 202.390483 264.233306
L 204.031507 263.684273
L 205.633944 263.116868
L 207.197287 262.532406
L 208.721172 261.932181
L 210.205374 261.317454
L 211.64979 260.689453
L 213.054439 260.049368
L 214.419447 259.398343
L 215.745039 258.737478
L 217.031531 258.067823
L 218.27932 257.390379
L 219.488874 256.706096
L 328.90212 193.536329
L 219.488874 256.706096
L 328.90212 193.536329
L 330.073973 192.846105
L 331.208713 192.150785
L 332.306976 191.451163
L 333.369439 190.747982
L 334.396812 190.041937
L 335.389833 189.333669
L 336.349261 188.623776
L 337.275872 187.912809
L 338.170452 187.201273
L 339.033796 186.489632
L 339.8667 185.77831
L 340.669959 185.06769
L 341.444365 184.358121
L 342.190703 183.649915
L 342.909749 182.943352
L 343.602267 182.238681
L 344.269008 181.536123
L 344.910709 180.835869
L 345.528088 180.138088
L 346.121849 179.442922
L 346.692676 178.750491
L 347.241233 178.060897
L 347.768168 177.374219
L 348.274104 176.690521
L 348.759648 176.009849
L 349.225384 175.332235
L 349.671875 174.657694
L 350.099666 173.98623
L 350.509279 173.317836
L 350.901216 172.652492
L 351.27596 171.990167
L 351.633971 171.330824
L 351.975693 170.674415
L 352.301547 170.020883
L 352.611937 169.370167
L 352.907248 168.722198
L 353.187844 168.0769
L 353.454075 167.434193
L 353.706269 166.79399
L 353.944738 166.156203
L 354.169779 165.520737
L 354.381669 164.887494
L 354.580669 164.256373
L 354.767026 163.627269
L 354.94097 163.000076
L 355.102714 162.374685
L 355.252458 161.750984
L 355.390386 161.128859
L 355.516667 160.508195
L 355.631456 159.888875
L 355.734894 159.270781
L 355.827107 158.653794
L 355.908209 158.037793
L 355.978298 157.422656
L 356.03746 156.808262
L 356.085767 156.194488
L 356.123278 155.58121
L 356.150039 154.968305
L 356.166083 154.355649
L 356.171429 153.743117
z
" clip-path="url(#paa0126295d)" style="fill: #217865; opacity: 0.15"/>
   </g>
   <g id="matplotlib.axis_1">
    <g id="xtick_1">
     <g id="line2d_1">
      <path d="M 64.578181 286.399627
L 64.578181 84.256373
" clip-path="url(#paa0126295d)" style="fill: none; stroke: #b0b0b0; stroke-opacity: 0.16; stroke-width: 0.8; stroke-linecap: square"/>
     </g>
     <g id="line2d_2">
      <defs>
       <path id="m9f02a49450" d="M 0 0
L 0 3.5
" style="stroke: #000000; stroke-width: 0.8"/>
      </defs>
      <g>
       <use xlink:href="#m9f02a49450" x="64.578181" y="286.399627" style="stroke: #000000; stroke-width: 0.8"/>
      </g>
     </g>
     <g id="text_1">
      <text style="font-size: 9px; font-family: 'DejaVu Sans'; text-anchor: middle" x="64.578181" y="300.237517" transform="rotate(-0 64.578181 300.237517)">−3</text>
     </g>
    </g>
    <g id="xtick_2">
     <g id="line2d_3">
      <path d="M 117.219653 286.399627
L 117.219653 84.256373
" clip-path="url(#paa0126295d)" style="fill: none; stroke: #b0b0b0; stroke-opacity: 0.16; stroke-width: 0.8; stroke-linecap: square"/>
     </g>
     <g id="line2d_4">
      <g>
       <use xlink:href="#m9f02a49450" x="117.219653" y="286.399627" style="stroke: #000000; stroke-width: 0.8"/>
      </g>
     </g>
     <g id="text_2">
      <text style="font-size: 9px; font-family: 'DejaVu Sans'; text-anchor: middle" x="117.219653" y="300.237517" transform="rotate(-0 117.219653 300.237517)">−2</text>
     </g>
    </g>
    <g id="xtick_3">
     <g id="line2d_5">
      <path d="M 169.861125 286.399627
L 169.861125 84.256373
" clip-path="url(#paa0126295d)" style="fill: none; stroke: #b0b0b0; stroke-opacity: 0.16; stroke-width: 0.8; stroke-linecap: square"/>
     </g>
     <g id="line2d_6">
      <g>
       <use xlink:href="#m9f02a49450" x="169.861125" y="286.399627" style="stroke: #000000; stroke-width: 0.8"/>
      </g>
     </g>
     <g id="text_3">
      <text style="font-size: 9px; font-family: 'DejaVu Sans'; text-anchor: middle" x="169.861125" y="300.237517" transform="rotate(-0 169.861125 300.237517)">−1</text>
     </g>
    </g>
    <g id="xtick_4">
     <g id="line2d_7">
      <path d="M 222.502597 286.399627
L 222.502597 84.256373
" clip-path="url(#paa0126295d)" style="fill: none; stroke: #b0b0b0; stroke-opacity: 0.16; stroke-width: 0.8; stroke-linecap: square"/>
     </g>
     <g id="line2d_8">
      <g>
       <use xlink:href="#m9f02a49450" x="222.502597" y="286.399627" style="stroke: #000000; stroke-width: 0.8"/>
      </g>
     </g>
     <g id="text_4">
      <text style="font-size: 9px; font-family: 'DejaVu Sans'; text-anchor: middle" x="222.502597" y="300.237517" transform="rotate(-0 222.502597 300.237517)">0</text>
     </g>
    </g>
    <g id="xtick_5">
     <g id="line2d_9">
      <path d="M 275.14407 286.399627
L 275.14407 84.256373
" clip-path="url(#paa0126295d)" style="fill: none; stroke: #b0b0b0; stroke-opacity: 0.16; stroke-width: 0.8; stroke-linecap: square"/>
     </g>
     <g id="line2d_10">
      <g>
       <use xlink:href="#m9f02a49450" x="275.14407" y="286.399627" style="stroke: #000000; stroke-width: 0.8"/>
      </g>
     </g>
     <g id="text_5">
      <text style="font-size: 9px; font-family: 'DejaVu Sans'; text-anchor: middle" x="275.14407" y="300.237517" transform="rotate(-0 275.14407 300.237517)">1</text>
     </g>
    </g>
    <g id="xtick_6">
     <g id="line2d_11">
      <path d="M 327.785542 286.399627
L 327.785542 84.256373
" clip-path="url(#paa0126295d)" style="fill: none; stroke: #b0b0b0; stroke-opacity: 0.16; stroke-width: 0.8; stroke-linecap: square"/>
     </g>
     <g id="line2d_12">
      <g>
       <use xlink:href="#m9f02a49450" x="327.785542" y="286.399627" style="stroke: #000000; stroke-width: 0.8"/>
      </g>
     </g>
     <g id="text_6">
      <text style="font-size: 9px; font-family: 'DejaVu Sans'; text-anchor: middle" x="327.785542" y="300.237517" transform="rotate(-0 327.785542 300.237517)">2</text>
     </g>
    </g>
    <g id="xtick_7">
     <g id="line2d_13">
      <path d="M 380.427014 286.399627
L 380.427014 84.256373
" clip-path="url(#paa0126295d)" style="fill: none; stroke: #b0b0b0; stroke-opacity: 0.16; stroke-width: 0.8; stroke-linecap: square"/>
     </g>
     <g id="line2d_14">
      <g>
       <use xlink:href="#m9f02a49450" x="380.427014" y="286.399627" style="stroke: #000000; stroke-width: 0.8"/>
      </g>
     </g>
     <g id="text_7">
      <text style="font-size: 9px; font-family: 'DejaVu Sans'; text-anchor: middle" x="380.427014" y="300.237517" transform="rotate(-0 380.427014 300.237517)">3</text>
     </g>
    </g>
    <g id="text_8">
     <text style="font-size: 8px; font-family: 'DejaVu Sans'; text-anchor: middle" x="222.502597" y="312.477752" transform="rotate(-0 222.502597 312.477752)">x</text>
    </g>
   </g>
   <g id="matplotlib.axis_2">
    <g id="ytick_1">
     <g id="line2d_15">
      <path d="M 62.1 264.290208
L 382.905195 264.290208
" clip-path="url(#paa0126295d)" style="fill: none; stroke: #b0b0b0; stroke-opacity: 0.16; stroke-width: 0.8; stroke-linecap: square"/>
     </g>
     <g id="line2d_16">
      <defs>
       <path id="m33170a7447" d="M 0 0
L -3.5 0
" style="stroke: #000000; stroke-width: 0.8"/>
      </defs>
      <g>
       <use xlink:href="#m33170a7447" x="62.1" y="264.290208" style="stroke: #000000; stroke-width: 0.8"/>
      </g>
     </g>
     <g id="text_9">
      <text style="font-size: 9px; font-family: 'DejaVu Sans'; text-anchor: end" x="55.1" y="267.709154" transform="rotate(-0 55.1 267.709154)">−1.5</text>
     </g>
    </g>
    <g id="ytick_2">
     <g id="line2d_17">
      <path d="M 62.1 237.969472
L 382.905195 237.969472
" clip-path="url(#paa0126295d)" style="fill: none; stroke: #b0b0b0; stroke-opacity: 0.16; stroke-width: 0.8; stroke-linecap: square"/>
     </g>
     <g id="line2d_18">
      <g>
       <use xlink:href="#m33170a7447" x="62.1" y="237.969472" style="stroke: #000000; stroke-width: 0.8"/>
      </g>
     </g>
     <g id="text_10">
      <text style="font-size: 9px; font-family: 'DejaVu Sans'; text-anchor: end" x="55.1" y="241.388418" transform="rotate(-0 55.1 241.388418)">−1.0</text>
     </g>
    </g>
    <g id="ytick_3">
     <g id="line2d_19">
      <path d="M 62.1 211.648736
L 382.905195 211.648736
" clip-path="url(#paa0126295d)" style="fill: none; stroke: #b0b0b0; stroke-opacity: 0.16; stroke-width: 0.8; stroke-linecap: square"/>
     </g>
     <g id="line2d_20">
      <g>
       <use xlink:href="#m33170a7447" x="62.1" y="211.648736" style="stroke: #000000; stroke-width: 0.8"/>
      </g>
     </g>
     <g id="text_11">
      <text style="font-size: 9px; font-family: 'DejaVu Sans'; text-anchor: end" x="55.1" y="215.067681" transform="rotate(-0 55.1 215.067681)">−0.5</text>
     </g>
    </g>
    <g id="ytick_4">
     <g id="line2d_21">
      <path d="M 62.1 185.328
L 382.905195 185.328
" clip-path="url(#paa0126295d)" style="fill: none; stroke: #b0b0b0; stroke-opacity: 0.16; stroke-width: 0.8; stroke-linecap: square"/>
     </g>
     <g id="line2d_22">
      <g>
       <use xlink:href="#m33170a7447" x="62.1" y="185.328" style="stroke: #000000; stroke-width: 0.8"/>
      </g>
     </g>
     <g id="text_12">
      <text style="font-size: 9px; font-family: 'DejaVu Sans'; text-anchor: end" x="55.1" y="188.746945" transform="rotate(-0 55.1 188.746945)">0.0</text>
     </g>
    </g>
    <g id="ytick_5">
     <g id="line2d_23">
      <path d="M 62.1 159.007264
L 382.905195 159.007264
" clip-path="url(#paa0126295d)" style="fill: none; stroke: #b0b0b0; stroke-opacity: 0.16; stroke-width: 0.8; stroke-linecap: square"/>
     </g>
     <g id="line2d_24">
      <g>
       <use xlink:href="#m33170a7447" x="62.1" y="159.007264" style="stroke: #000000; stroke-width: 0.8"/>
      </g>
     </g>
     <g id="text_13">
      <text style="font-size: 9px; font-family: 'DejaVu Sans'; text-anchor: end" x="55.1" y="162.426209" transform="rotate(-0 55.1 162.426209)">0.5</text>
     </g>
    </g>
    <g id="ytick_6">
     <g id="line2d_25">
      <path d="M 62.1 132.686528
L 382.905195 132.686528
" clip-path="url(#paa0126295d)" style="fill: none; stroke: #b0b0b0; stroke-opacity: 0.16; stroke-width: 0.8; stroke-linecap: square"/>
     </g>
     <g id="line2d_26">
      <g>
       <use xlink:href="#m33170a7447" x="62.1" y="132.686528" style="stroke: #000000; stroke-width: 0.8"/>
      </g>
     </g>
     <g id="text_14">
      <text style="font-size: 9px; font-family: 'DejaVu Sans'; text-anchor: end" x="55.1" y="136.105473" transform="rotate(-0 55.1 136.105473)">1.0</text>
     </g>
    </g>
    <g id="ytick_7">
     <g id="line2d_27">
      <path d="M 62.1 106.365792
L 382.905195 106.365792
" clip-path="url(#paa0126295d)" style="fill: none; stroke: #b0b0b0; stroke-opacity: 0.16; stroke-width: 0.8; stroke-linecap: square"/>
     </g>
     <g id="line2d_28">
      <g>
       <use xlink:href="#m33170a7447" x="62.1" y="106.365792" style="stroke: #000000; stroke-width: 0.8"/>
      </g>
     </g>
     <g id="text_15">
      <text style="font-size: 9px; font-family: 'DejaVu Sans'; text-anchor: end" x="55.1" y="109.784737" transform="rotate(-0 55.1 109.784737)">1.5</text>
     </g>
    </g>
    <g id="text_16">
     <text style="font-size: 8px; font-family: 'DejaVu Sans'; text-anchor: middle" x="27.323594" y="185.328" transform="rotate(-90 27.323594 185.328)">y</text>
    </g>
   </g>
   <g id="line2d_29">
    <path d="M 356.171429 153.743117
L 356.03746 150.677971
L 355.631456 147.597358
L 355.102714 145.111548
L 354.381669 142.59874
L 353.454075 140.052041
L 352.301547 137.46535
L 350.901216 134.833742
L 349.225384 132.153999
L 347.241233 129.425336
L 344.910709 126.650364
L 342.190703 123.836319
L 339.8667 121.707923
L 337.275872 119.573424
L 334.396812 117.444297
L 331.208713 115.335449
L 327.692565 113.265621
L 323.832693 111.257657
L 319.618619 109.338546
L 315.047189 107.539132
L 310.124777 105.893368
L 304.869332 104.43705
L 299.311917 103.205997
L 293.497343 102.233776
L 287.483572 101.54917
L 281.339689 101.173715
L 275.142493 101.119679
L 268.972045 101.388856
L 262.906765 101.972382
L 257.018746 102.851619
L 251.369957 103.999941
L 246.009728 105.38509
L 240.973688 106.971727
L 236.284022 108.723819
L 231.950755 110.606632
L 227.973664 112.588177
L 225.516321 113.949904
L 112.698219 179.204837
L 109.615362 181.322331
L 106.834743 183.454727
L 104.335236 185.58831
L 101.402928 188.417319
L 98.883346 191.213078
L 96.731091 193.965479
L 94.905529 196.66977
L 93.371224 199.325176
L 92.097947 201.933802
L 91.060456 204.499797
L 90.238168 207.028731
L 89.614809 209.527141
L 89.096986 212.618207
L 88.855156 215.687695
L 88.881917 218.750977
L 89.178088 221.82356
L 89.752737 224.920751
L 90.424526 227.426139
L 91.298926 229.963757
L 92.393258 232.539934
L 93.729235 235.159934
L 95.333319 237.82746
L 97.237027 240.543986
L 99.477107 243.307855
L 102.095446 246.113118
L 105.138495 248.948077
L 107.729323 251.082576
L 110.608383 253.211703
L 113.796482 255.320551
L 117.31263 257.390379
L 121.172502 259.398343
L 125.386575 261.317454
L 129.958006 263.116868
L 134.880418 264.762632
L 140.135862 266.21895
L 145.693277 267.450003
L 151.507852 268.422224
L 157.521623 269.10683
L 163.665506 269.482285
L 169.862702 269.536321
L 176.033149 269.267144
L 182.09843 268.683618
L 187.986449 267.804381
L 193.635238 266.656059
L 198.995467 265.27091
L 204.031507 263.684273
L 208.721172 261.932181
L 213.054439 260.049368
L 217.031531 258.067823
L 219.488874 256.706096
L 332.306976 191.451163
L 335.389833 189.333669
L 338.170452 187.201273
L 340.669959 185.06769
L 343.602267 182.238681
L 346.121849 179.442922
L 348.274104 176.690521
L 350.099666 173.98623
L 351.633971 171.330824
L 352.907248 168.722198
L 353.944738 166.156203
L 354.767026 163.627269
L 355.390386 161.128859
L 355.908209 158.037793
L 356.150039 154.968305
L 356.171429 153.743117
L 356.171429 153.743117
" clip-path="url(#paa0126295d)" style="fill: none; stroke: #217865; stroke-width: 1.6; stroke-linecap: square"/>
   </g>
   <g id="line2d_30">
    <path d="M 301.464806 185.328
L 301.356591 182.572958
L 301.032243 179.825468
L 300.49265 177.093059
L 299.739292 174.383222
L 298.774234 171.703384
L 297.60012 169.06089
L 296.22017 166.462984
L 294.638164 163.916784
L 292.85844 161.429272
L 290.885876 159.007264
L 288.725878 156.657399
L 286.384366 154.386119
L 283.867759 152.199648
L 281.182954 150.10398
L 278.33731 148.104858
L 275.338628 146.207762
L 271.116587 143.845954
L 266.657704 141.686242
L 261.983702 139.739148
L 257.117351 138.014158
L 252.082361 136.519677
L 246.903262 135.262985
L 241.605285 134.250204
L 236.214241 133.48627
L 230.756396 132.974903
L 225.258339 132.718595
L 219.746856 132.718595
L 214.248799 132.974903
L 208.790954 133.48627
L 203.39991 134.250204
L 198.101933 135.262985
L 192.922833 136.519677
L 187.887844 138.014158
L 183.021493 139.739148
L 178.347491 141.686242
L 173.888608 143.845954
L 169.666567 146.207762
L 166.667884 148.104858
L 163.822241 150.10398
L 161.137436 152.199648
L 158.620829 154.386119
L 156.279317 156.657399
L 154.119319 159.007264
L 152.146755 161.429272
L 150.367031 163.916784
L 148.785025 166.462984
L 147.405075 169.06089
L 146.230961 171.703384
L 145.265903 174.383222
L 144.512545 177.093059
L 143.972952 179.825468
L 143.648604 182.572958
L 143.540389 185.328
L 143.648604 188.083042
L 143.972952 190.830532
L 144.512545 193.562941
L 145.265903 196.272778
L 146.230961 198.952616
L 147.405075 201.59511
L 148.785025 204.193016
L 150.367031 206.739216
L 152.146755 209.226728
L 154.119319 211.648736
L 156.279317 213.998601
L 158.620829 216.269881
L 161.137436 218.456352
L 163.822241 220.55202
L 166.667884 222.551142
L 169.666567 224.448238
L 173.888608 226.810046
L 178.347491 228.969758
L 183.021493 230.916852
L 187.887844 232.641842
L 192.922833 234.136323
L 198.101933 235.393015
L 203.39991 236.405796
L 208.790954 237.16973
L 214.248799 237.681097
L 219.746856 237.937405
L 225.258339 237.937405
L 230.756396 237.681097
L 236.214241 237.16973
L 241.605285 236.405796
L 246.903262 235.393015
L 252.082361 234.136323
L 257.117351 232.641842
L 261.983702 230.916852
L 266.657704 228.969758
L 271.116587 226.810046
L 275.338628 224.448238
L 278.33731 222.551142
L 281.182954 220.55202
L 283.867759 218.456352
L 286.384366 216.269881
L 288.725878 213.998601
L 290.885876 211.648736
L 292.85844 209.226728
L 294.638164 206.739216
L 296.22017 204.193016
L 297.60012 201.59511
L 298.774234 198.952616
L 299.739292 196.272778
L 300.49265 193.562941
L 301.032243 190.830532
L 301.356591 188.083042
L 301.464806 185.328
L 301.464806 185.328
" clip-path="url(#paa0126295d)" style="fill: none; stroke: #c87540; stroke-width: 1.6; stroke-linecap: square"/>
   </g>
   <g id="line2d_31">
    <path d="M 167.795975 216.912883
L 277.20922 153.743117
" clip-path="url(#paa0126295d)" style="fill: none; stroke: #8075bb; stroke-width: 1.6; stroke-linecap: square"/>
   </g>
   <g id="line2d_32">
    <path d="M 62.1 185.328
L 382.905195 185.328
" clip-path="url(#paa0126295d)" style="fill: none; stroke: #b8c9c5; stroke-width: 0.7; stroke-linecap: square"/>
   </g>
   <g id="line2d_33">
    <path d="M 222.502597 286.399627
L 222.502597 84.256373
" clip-path="url(#paa0126295d)" style="fill: none; stroke: #b8c9c5; stroke-width: 0.7; stroke-linecap: square"/>
   </g>
   <g id="patch_4">
    <path d="M 62.1 286.399627
L 62.1 84.256373
" style="fill: none; stroke: #000000; stroke-width: 0.8; stroke-linejoin: miter; stroke-linecap: square"/>
   </g>
   <g id="patch_5">
    <path d="M 62.1 286.399627
L 382.905195 286.399627
" style="fill: none; stroke: #000000; stroke-width: 0.8; stroke-linejoin: miter; stroke-linecap: square"/>
   </g>
   <g id="text_17">
    <text style="font-size: 7px; font-family: 'DejaVu Sans'; text-anchor: start; fill: #aa892c" x="311.656515" y="97.899206" transform="rotate(-0 311.656515 97.899206)">Support φ</text>
   </g>
   <g id="text_18">
    <text style="font-size: 10px; font-family: 'DejaVu Sans'; text-anchor: start; fill: #162f43" x="62.1" y="73.256373" transform="rotate(-0 62.1 73.256373)">Image continue d’un produit de compacts</text>
   </g>
   <g id="PathCollection_1">
    <defs>
     <path id="mc4fb992066" d="M 0 2.598076
C 0.689018 2.598076 1.349908 2.324327 1.837117 1.837117
C 2.324327 1.349908 2.598076 0.689018 2.598076 0
C 2.598076 -0.689018 2.324327 -1.349908 1.837117 -1.837117
C 1.349908 -2.324327 0.689018 -2.598076 0 -2.598076
C -0.689018 -2.598076 -1.349908 -2.324327 -1.837117 -1.837117
C -2.324327 -1.349908 -2.598076 -0.689018 -2.598076 0
C -2.598076 0.689018 -2.324327 1.349908 -1.837117 1.837117
C -1.349908 2.324327 -0.689018 2.598076 0 2.598076
z
" style="stroke: #aa892c"/>
    </defs>
    <g clip-path="url(#paa0126295d)">
     <use xlink:href="#mc4fb992066" x="306.656515" y="104.899206" style="fill: #aa892c; stroke: #aa892c"/>
    </g>
   </g>
   <g id="legend_1">
    <g id="patch_6">
     <path d="M 66.65 118.707897
L 123.226406 118.707897
Q 124.526406 118.707897 124.526406 117.407897
L 124.526406 88.806373
Q 124.526406 87.506373 123.226406 87.506373
L 66.65 87.506373
Q 65.35 87.506373 65.35 88.806373
L 65.35 117.407897
Q 65.35 118.707897 66.65 118.707897
z
" style="fill: #ffffff; opacity: 0.9; stroke: #cccccc; stroke-linejoin: miter"/>
    </g>
    <g id="line2d_34">
     <path d="M 67.95 92.770358
L 74.45 92.770358
L 80.95 92.770358
" style="fill: none; stroke: #217865; stroke-width: 1.6; stroke-linecap: square"/>
    </g>
    <g id="text_19">
     <text style="font-size: 6.5px; font-family: 'DejaVu Sans'; text-anchor: start" x="86.15" y="95.045358" transform="rotate(-0 86.15 95.045358)">A+B</text>
    </g>
    <g id="line2d_35">
     <path d="M 67.95 102.520865
L 74.45 102.520865
L 80.95 102.520865
" style="fill: none; stroke: #c87540; stroke-width: 1.6; stroke-linecap: square"/>
    </g>
    <g id="text_20">
     <text style="font-size: 6.5px; font-family: 'DejaVu Sans'; text-anchor: start" x="86.15" y="104.795865" transform="rotate(-0 86.15 104.795865)">Ellipse A</text>
    </g>
    <g id="line2d_36">
     <path d="M 67.95 112.271373
L 74.45 112.271373
L 80.95 112.271373
" style="fill: none; stroke: #8075bb; stroke-width: 1.6; stroke-linecap: square"/>
    </g>
    <g id="text_21">
     <text style="font-size: 6.5px; font-family: 'DejaVu Sans'; text-anchor: start" x="86.15" y="114.546373" transform="rotate(-0 86.15 114.546373)">Segment B</text>
    </g>
   </g>
  </g>
  <g id="axes_2">
   <g id="patch_7">
    <path d="M 482.354805 292.032
L 803.16 292.032
L 803.16 78.624
L 482.354805 78.624
z
" style="fill: #ffffff"/>
   </g>
   <g id="matplotlib.axis_3">
    <g id="xtick_8">
     <g id="line2d_37">
      <path d="M 496.93686 292.032
L 496.93686 78.624
" clip-path="url(#p064afcb195)" style="fill: none; stroke: #b0b0b0; stroke-opacity: 0.16; stroke-width: 0.8; stroke-linecap: square"/>
     </g>
     <g id="line2d_38">
      <g>
       <use xlink:href="#m9f02a49450" x="496.93686" y="292.032" style="stroke: #000000; stroke-width: 0.8"/>
      </g>
     </g>
     <g id="text_22">
      <text style="font-size: 9px; font-family: 'DejaVu Sans'; text-anchor: middle" x="496.93686" y="305.869891" transform="rotate(-0 496.93686 305.869891)">0</text>
     </g>
    </g>
    <g id="xtick_9">
     <g id="line2d_39">
      <path d="M 537.442566 292.032
L 537.442566 78.624
" clip-path="url(#p064afcb195)" style="fill: none; stroke: #b0b0b0; stroke-opacity: 0.16; stroke-width: 0.8; stroke-linecap: square"/>
     </g>
     <g id="line2d_40">
      <g>
       <use xlink:href="#m9f02a49450" x="537.442566" y="292.032" style="stroke: #000000; stroke-width: 0.8"/>
      </g>
     </g>
     <g id="text_23">
      <text style="font-size: 9px; font-family: 'DejaVu Sans'; text-anchor: middle" x="537.442566" y="305.869891" transform="rotate(-0 537.442566 305.869891)">50</text>
     </g>
    </g>
    <g id="xtick_10">
     <g id="line2d_41">
      <path d="M 577.948272 292.032
L 577.948272 78.624
" clip-path="url(#p064afcb195)" style="fill: none; stroke: #b0b0b0; stroke-opacity: 0.16; stroke-width: 0.8; stroke-linecap: square"/>
     </g>
     <g id="line2d_42">
      <g>
       <use xlink:href="#m9f02a49450" x="577.948272" y="292.032" style="stroke: #000000; stroke-width: 0.8"/>
      </g>
     </g>
     <g id="text_24">
      <text style="font-size: 9px; font-family: 'DejaVu Sans'; text-anchor: middle" x="577.948272" y="305.869891" transform="rotate(-0 577.948272 305.869891)">100</text>
     </g>
    </g>
    <g id="xtick_11">
     <g id="line2d_43">
      <path d="M 618.453979 292.032
L 618.453979 78.624
" clip-path="url(#p064afcb195)" style="fill: none; stroke: #b0b0b0; stroke-opacity: 0.16; stroke-width: 0.8; stroke-linecap: square"/>
     </g>
     <g id="line2d_44">
      <g>
       <use xlink:href="#m9f02a49450" x="618.453979" y="292.032" style="stroke: #000000; stroke-width: 0.8"/>
      </g>
     </g>
     <g id="text_25">
      <text style="font-size: 9px; font-family: 'DejaVu Sans'; text-anchor: middle" x="618.453979" y="305.869891" transform="rotate(-0 618.453979 305.869891)">150</text>
     </g>
    </g>
    <g id="xtick_12">
     <g id="line2d_45">
      <path d="M 658.959685 292.032
L 658.959685 78.624
" clip-path="url(#p064afcb195)" style="fill: none; stroke: #b0b0b0; stroke-opacity: 0.16; stroke-width: 0.8; stroke-linecap: square"/>
     </g>
     <g id="line2d_46">
      <g>
       <use xlink:href="#m9f02a49450" x="658.959685" y="292.032" style="stroke: #000000; stroke-width: 0.8"/>
      </g>
     </g>
     <g id="text_26">
      <text style="font-size: 9px; font-family: 'DejaVu Sans'; text-anchor: middle" x="658.959685" y="305.869891" transform="rotate(-0 658.959685 305.869891)">200</text>
     </g>
    </g>
    <g id="xtick_13">
     <g id="line2d_47">
      <path d="M 699.465392 292.032
L 699.465392 78.624
" clip-path="url(#p064afcb195)" style="fill: none; stroke: #b0b0b0; stroke-opacity: 0.16; stroke-width: 0.8; stroke-linecap: square"/>
     </g>
     <g id="line2d_48">
      <g>
       <use xlink:href="#m9f02a49450" x="699.465392" y="292.032" style="stroke: #000000; stroke-width: 0.8"/>
      </g>
     </g>
     <g id="text_27">
      <text style="font-size: 9px; font-family: 'DejaVu Sans'; text-anchor: middle" x="699.465392" y="305.869891" transform="rotate(-0 699.465392 305.869891)">250</text>
     </g>
    </g>
    <g id="xtick_14">
     <g id="line2d_49">
      <path d="M 739.971098 292.032
L 739.971098 78.624
" clip-path="url(#p064afcb195)" style="fill: none; stroke: #b0b0b0; stroke-opacity: 0.16; stroke-width: 0.8; stroke-linecap: square"/>
     </g>
     <g id="line2d_50">
      <g>
       <use xlink:href="#m9f02a49450" x="739.971098" y="292.032" style="stroke: #000000; stroke-width: 0.8"/>
      </g>
     </g>
     <g id="text_28">
      <text style="font-size: 9px; font-family: 'DejaVu Sans'; text-anchor: middle" x="739.971098" y="305.869891" transform="rotate(-0 739.971098 305.869891)">300</text>
     </g>
    </g>
    <g id="xtick_15">
     <g id="line2d_51">
      <path d="M 780.476804 292.032
L 780.476804 78.624
" clip-path="url(#p064afcb195)" style="fill: none; stroke: #b0b0b0; stroke-opacity: 0.16; stroke-width: 0.8; stroke-linecap: square"/>
     </g>
     <g id="line2d_52">
      <g>
       <use xlink:href="#m9f02a49450" x="780.476804" y="292.032" style="stroke: #000000; stroke-width: 0.8"/>
      </g>
     </g>
     <g id="text_29">
      <text style="font-size: 9px; font-family: 'DejaVu Sans'; text-anchor: middle" x="780.476804" y="305.869891" transform="rotate(-0 780.476804 305.869891)">350</text>
     </g>
    </g>
    <g id="text_30">
     <text style="font-size: 8px; font-family: 'DejaVu Sans'; text-anchor: middle" x="642.757403" y="318.11075" transform="rotate(-0 642.757403 318.11075)">Angle de la normale (°)</text>
    </g>
   </g>
   <g id="matplotlib.axis_4">
    <g id="ytick_8">
     <g id="line2d_53">
      <path d="M 482.354805 282.702652
L 803.16 282.702652
" clip-path="url(#p064afcb195)" style="fill: none; stroke: #b0b0b0; stroke-opacity: 0.16; stroke-width: 0.8; stroke-linecap: square"/>
     </g>
     <g id="line2d_54">
      <g>
       <use xlink:href="#m33170a7447" x="482.354805" y="282.702652" style="stroke: #000000; stroke-width: 0.8"/>
      </g>
     </g>
     <g id="text_31">
      <text style="font-size: 9px; font-family: 'DejaVu Sans'; text-anchor: end" x="475.354805" y="286.121597" transform="rotate(-0 475.354805 286.121597)">0.0</text>
     </g>
    </g>
    <g id="ytick_9">
     <g id="line2d_55">
      <path d="M 482.354805 245.796972
L 803.16 245.796972
" clip-path="url(#p064afcb195)" style="fill: none; stroke: #b0b0b0; stroke-opacity: 0.16; stroke-width: 0.8; stroke-linecap: square"/>
     </g>
     <g id="line2d_56">
      <g>
       <use xlink:href="#m33170a7447" x="482.354805" y="245.796972" style="stroke: #000000; stroke-width: 0.8"/>
      </g>
     </g>
     <g id="text_32">
      <text style="font-size: 9px; font-family: 'DejaVu Sans'; text-anchor: end" x="475.354805" y="249.215918" transform="rotate(-0 475.354805 249.215918)">0.5</text>
     </g>
    </g>
    <g id="ytick_10">
     <g id="line2d_57">
      <path d="M 482.354805 208.891293
L 803.16 208.891293
" clip-path="url(#p064afcb195)" style="fill: none; stroke: #b0b0b0; stroke-opacity: 0.16; stroke-width: 0.8; stroke-linecap: square"/>
     </g>
     <g id="line2d_58">
      <g>
       <use xlink:href="#m33170a7447" x="482.354805" y="208.891293" style="stroke: #000000; stroke-width: 0.8"/>
      </g>
     </g>
     <g id="text_33">
      <text style="font-size: 9px; font-family: 'DejaVu Sans'; text-anchor: end" x="475.354805" y="212.310238" transform="rotate(-0 475.354805 212.310238)">1.0</text>
     </g>
    </g>
    <g id="ytick_11">
     <g id="line2d_59">
      <path d="M 482.354805 171.985613
L 803.16 171.985613
" clip-path="url(#p064afcb195)" style="fill: none; stroke: #b0b0b0; stroke-opacity: 0.16; stroke-width: 0.8; stroke-linecap: square"/>
     </g>
     <g id="line2d_60">
      <g>
       <use xlink:href="#m33170a7447" x="482.354805" y="171.985613" style="stroke: #000000; stroke-width: 0.8"/>
      </g>
     </g>
     <g id="text_34">
      <text style="font-size: 9px; font-family: 'DejaVu Sans'; text-anchor: end" x="475.354805" y="175.404559" transform="rotate(-0 475.354805 175.404559)">1.5</text>
     </g>
    </g>
    <g id="ytick_12">
     <g id="line2d_61">
      <path d="M 482.354805 135.079934
L 803.16 135.079934
" clip-path="url(#p064afcb195)" style="fill: none; stroke: #b0b0b0; stroke-opacity: 0.16; stroke-width: 0.8; stroke-linecap: square"/>
     </g>
     <g id="line2d_62">
      <g>
       <use xlink:href="#m33170a7447" x="482.354805" y="135.079934" style="stroke: #000000; stroke-width: 0.8"/>
      </g>
     </g>
     <g id="text_35">
      <text style="font-size: 9px; font-family: 'DejaVu Sans'; text-anchor: end" x="475.354805" y="138.498879" transform="rotate(-0 475.354805 138.498879)">2.0</text>
     </g>
    </g>
    <g id="ytick_13">
     <g id="line2d_63">
      <path d="M 482.354805 98.174255
L 803.16 98.174255
" clip-path="url(#p064afcb195)" style="fill: none; stroke: #b0b0b0; stroke-opacity: 0.16; stroke-width: 0.8; stroke-linecap: square"/>
     </g>
     <g id="line2d_64">
      <g>
       <use xlink:href="#m33170a7447" x="482.354805" y="98.174255" style="stroke: #000000; stroke-width: 0.8"/>
      </g>
     </g>
     <g id="text_36">
      <text style="font-size: 9px; font-family: 'DejaVu Sans'; text-anchor: end" x="475.354805" y="101.5932" transform="rotate(-0 475.354805 101.5932)">2.5</text>
     </g>
    </g>
    <g id="text_37">
     <text style="font-size: 8px; font-family: 'DejaVu Sans'; text-anchor: middle" x="455.120118" y="185.328" transform="rotate(-90 455.120118 185.328)">Appui h</text>
    </g>
   </g>
   <g id="line2d_65">
    <path d="M 496.93686 171.985613
L 499.85327 172.106935
L 502.769681 172.46978
L 505.686092 173.070784
L 508.602503 173.904316
L 511.518914 174.962448
L 514.435325 176.234905
L 517.935018 178.026739
L 521.434711 180.082175
L 525.517686 182.770352
L 530.183943 186.150202
L 536.016765 190.675996
L 546.515844 198.865546
L 550.598819 201.748145
L 554.098512 203.946898
L 557.014923 205.530822
L 559.931334 206.846126
L 562.264463 207.680983
L 564.597591 208.306049
L 566.93072 208.709634
L 569.263849 208.884009
L 571.596978 208.825789
L 573.930106 208.536108
L 576.263235 208.020557
L 578.596364 207.288907
L 580.929492 206.354631
L 583.845903 204.927327
L 586.762314 203.246968
L 590.262007 200.95478
L 594.344982 197.994818
L 600.177804 193.455773
L 610.093601 185.713059
L 614.759858 182.369217
L 618.842834 179.722587
L 622.342527 177.70901
L 625.84222 175.963841
L 628.75863 174.733313
L 631.675041 173.719355
L 634.591452 172.931768
L 637.507863 172.378018
L 640.424274 172.063281
L 643.340685 171.99047
L 646.257096 172.160257
L 649.173506 172.571076
L 652.089917 173.219109
L 655.006328 174.098269
L 657.922739 175.200164
L 660.83915 176.514043
L 664.338843 178.351803
L 667.838536 180.44821
L 671.921511 183.1767
L 676.587769 186.590874
L 683.003872 191.601619
L 691.753105 198.43234
L 695.83608 201.354835
L 699.335773 203.601341
L 702.252184 205.2343
L 705.168595 206.606337
L 707.501724 207.4914
L 709.834852 208.170153
L 712.167981 208.629996
L 714.50111 208.862165
L 716.834238 208.862165
L 719.167367 208.629996
L 721.500496 208.170153
L 723.833625 207.4914
L 726.166753 206.606337
L 729.083164 205.2343
L 731.999575 203.601341
L 735.499268 201.354835
L 739.582243 198.43234
L 744.831783 194.379584
L 756.497426 185.279673
L 761.163684 181.973484
L 765.246659 179.369603
L 768.746352 177.398749
L 772.246045 175.70096
L 775.162456 174.512848
L 778.078867 173.543455
L 780.995277 172.802113
L 783.911688 172.295824
L 786.828099 172.029311
L 788.577946 171.985613
L 788.577946 171.985613
" clip-path="url(#p064afcb195)" style="fill: none; stroke: #217865; stroke-width: 1.6; stroke-linecap: square"/>
   </g>
   <g id="line2d_66">
    <path d="M 496.93686 205.995637
L 499.85327 203.366209
L 502.769681 201.049885
L 505.686092 199.055808
L 508.019221 197.697895
L 510.352349 196.554712
L 512.685478 195.629145
L 515.018607 194.923535
L 517.351736 194.439661
L 519.684864 194.178748
L 522.017993 194.141454
L 524.351122 194.327873
L 526.68425 194.737534
L 529.017379 195.369403
L 531.350508 196.221883
L 533.683636 197.292821
L 536.016765 198.579512
L 538.349894 200.078705
L 541.266305 202.245708
L 544.182715 204.730238
L 547.099126 207.52249
L 550.015537 210.611443
L 552.931948 213.984907
L 556.431641 218.389798
L 559.931334 223.160126
L 564.014309 229.151113
L 568.097285 235.556202
L 572.763542 243.3197
L 578.013081 252.524929
L 584.429185 264.287158
L 593.7617 281.960628
L 594.344982 282.331636
L 605.427344 261.39477
L 611.843447 249.751848
L 617.092987 240.683718
L 621.759244 233.070425
L 625.84222 226.817415
L 629.925195 220.996553
L 633.424888 216.385415
L 636.924581 212.151105
L 639.840992 208.927793
L 642.757403 205.995637
L 645.673813 203.366209
L 648.590224 201.049885
L 651.506635 199.055808
L 653.839764 197.697895
L 656.172893 196.554712
L 658.506021 195.629145
L 660.83915 194.923535
L 663.172279 194.439661
L 665.505407 194.178748
L 667.838536 194.141454
L 670.171665 194.327873
L 672.504793 194.737534
L 674.837922 195.369403
L 677.171051 196.221883
L 679.504179 197.292821
L 681.837308 198.579512
L 684.170437 200.078705
L 687.086848 202.245708
L 690.003259 204.730238
L 692.919669 207.52249
L 695.83608 210.611443
L 698.752491 213.984907
L 702.252184 218.389798
L 705.751877 223.160126
L 709.834852 229.151113
L 713.917828 235.556202
L 718.584085 243.3197
L 723.833625 252.524929
L 730.249728 264.287158
L 739.582243 281.960628
L 740.165525 282.331636
L 751.247887 261.39477
L 757.663991 249.751848
L 762.91353 240.683718
L 767.579787 233.070425
L 771.662763 226.817415
L 775.745738 220.996553
L 779.245431 216.385415
L 782.745124 212.151105
L 785.661535 208.927793
L 788.577946 205.995637
L 788.577946 205.995637
" clip-path="url(#p064afcb195)" style="fill: none; stroke: #c87540; stroke-width: 1.6; stroke-linecap: square"/>
   </g>
   <g id="line2d_67">
    <path d="M 496.93686 95.278599
L 499.269988 93.22799
L 501.603117 91.531402
L 503.352963 90.493444
L 505.10281 89.657564
L 506.852656 89.024246
L 508.602503 88.593511
L 510.352349 88.364908
L 512.102196 88.33751
L 513.852043 88.509911
L 515.601889 88.880211
L 517.351736 89.446019
L 519.101582 90.204439
L 520.851429 91.152064
L 523.184557 92.703025
L 525.517686 94.57255
L 527.850815 96.748183
L 530.183943 99.215738
L 533.100354 102.686253
L 536.016765 106.552856
L 538.933176 110.776224
L 542.432869 116.253597
L 546.515844 123.102828
L 551.765384 132.41269
L 566.93072 159.693735
L 571.596978 167.461542
L 575.679953 173.846491
L 579.762928 179.828466
L 583.845903 185.42459
L 587.928878 190.676131
L 592.595136 196.326518
L 593.7617 197.690316
L 594.344982 197.623803
L 610.676883 154.405382
L 615.34314 142.9232
L 619.426116 133.48607
L 622.925809 125.938612
L 626.425502 118.956626
L 629.341913 113.610099
L 632.258323 108.722647
L 635.174734 104.319062
L 637.507863 101.159111
L 639.840992 98.332077
L 642.17412 95.846022
L 644.507249 93.707621
L 646.840378 91.922144
L 648.590224 90.817014
L 650.340071 89.913698
L 652.089917 89.212834
L 653.839764 88.714598
L 655.58961 88.418697
L 657.339457 88.324364
L 659.089303 88.430351
L 660.83915 88.734926
L 662.588996 89.235862
L 664.338843 89.930431
L 666.088689 90.815398
L 668.421818 92.28497
L 670.754947 94.075955
L 673.088076 96.176323
L 675.421204 98.572323
L 677.754333 101.248459
L 680.670744 104.961105
L 683.587155 109.046759
L 687.086848 114.382663
L 690.586541 120.115076
L 695.252798 128.222614
L 702.252184 140.921446
L 710.418135 155.645292
L 715.084392 163.636787
L 719.167367 170.247098
L 723.250342 176.459216
L 727.333318 182.27208
L 731.416293 187.714444
L 736.08255 193.54313
L 739.582243 197.690316
L 740.165525 197.623803
L 756.497426 154.405382
L 761.163684 142.9232
L 765.246659 133.48607
L 768.746352 125.938612
L 772.246045 118.956626
L 775.162456 113.610099
L 778.078867 108.722647
L 780.995277 104.319062
L 783.328406 101.159111
L 785.661535 98.332077
L 787.994664 95.846022
L 788.577946 95.278599
L 788.577946 95.278599
" clip-path="url(#p064afcb195)" style="fill: none; stroke: #8075bb; stroke-width: 1.6; stroke-linecap: square"/>
   </g>
   <g id="patch_8">
    <path d="M 482.354805 292.032
L 482.354805 78.624
" style="fill: none; stroke: #000000; stroke-width: 0.8; stroke-linejoin: miter; stroke-linecap: square"/>
   </g>
   <g id="patch_9">
    <path d="M 482.354805 292.032
L 803.16 292.032
" style="fill: none; stroke: #000000; stroke-width: 0.8; stroke-linejoin: miter; stroke-linecap: square"/>
   </g>
   <g id="text_38">
    <text style="font-size: 10px; font-family: 'DejaVu Sans'; fill: #162f43" transform="translate(482.354805 55.621266)">La fonction d’appui transforme la somme en</text>
    <text style="font-size: 10px; font-family: 'DejaVu Sans'; fill: #162f43" transform="translate(482.354805 67.624)">addition</text>
   </g>
   <g id="legend_2">
    <g id="patch_10">
     <path d="M 486.904805 288.782
L 563.628165 288.782
Q 564.928165 288.782 564.928165 287.482
L 564.928165 258.880477
Q 564.928165 257.580477 563.628165 257.580477
L 486.904805 257.580477
Q 485.604805 257.580477 485.604805 258.880477
L 485.604805 287.482
Q 485.604805 288.782 486.904805 288.782
z
" style="fill: #ffffff; opacity: 0.9; stroke: #cccccc; stroke-linejoin: miter"/>
    </g>
    <g id="line2d_68">
     <path d="M 488.204805 262.844461
L 494.704805 262.844461
L 501.204805 262.844461
" style="fill: none; stroke: #217865; stroke-width: 1.6; stroke-linecap: square"/>
    </g>
    <g id="text_39">
     <text style="font-size: 6.5px; font-family: 'DejaVu Sans'; text-anchor: start" x="506.404805" y="265.119461" transform="rotate(-0 506.404805 265.119461)">Ellipse h_A</text>
    </g>
    <g id="line2d_69">
     <path d="M 488.204805 272.594969
L 494.704805 272.594969
L 501.204805 272.594969
" style="fill: none; stroke: #c87540; stroke-width: 1.6; stroke-linecap: square"/>
    </g>
    <g id="text_40">
     <text style="font-size: 6.5px; font-family: 'DejaVu Sans'; text-anchor: start" x="506.404805" y="274.869969" transform="rotate(-0 506.404805 274.869969)">Segment h_B</text>
    </g>
    <g id="line2d_70">
     <path d="M 488.204805 282.345477
L 494.704805 282.345477
L 501.204805 282.345477
" style="fill: none; stroke: #8075bb; stroke-width: 1.6; stroke-linecap: square"/>
    </g>
    <g id="text_41">
     <text style="font-size: 6.5px; font-family: 'DejaVu Sans'; text-anchor: start" x="506.404805" y="284.620477" transform="rotate(-0 506.404805 284.620477)">Somme h_A+h_B</text>
    </g>
   </g>
  </g>
  <g id="text_42">
   <text style="font-size: 16px; font-family: 'DejaVu Sans'; text-anchor: start; fill: #162f43" x="45.54" y="23.3895" transform="rotate(-0 45.54 23.3895)">La somme de deux compacts dessine un stade</text>
  </g>
  <g id="text_43">
   <text style="font-size: 7.7px; font-family: 'DejaVu Sans'; fill: #56707c" transform="translate(45.54 352.869338)">Paramètres : a=1.5 · b=1 · length=1.2 · theta=30 · direction=75. La courbe de l’ellipse est échantillonnée pour le dessin ; les fonctions</text>
   <text style="font-size: 7.7px; font-family: 'DejaVu Sans'; fill: #56707c" transform="translate(45.54 362.419443)">d’appui, la convexité et la compacité sont établies exactement.</text>
  </g>
 </g>
 <defs>
  <clipPath id="paa0126295d">
   <rect x="62.1" y="84.256373" width="320.805195" height="202.143254"/>
  </clipPath>
  <clipPath id="p064afcb195">
   <rect x="482.354805" y="78.624" width="320.805195" height="213.408"/>
  </clipPath>
 </defs>
</svg>
